<?xml version="1.0" encoding="UTF-8" standalone="no"?>
<svg
   xmlns:dc="http://purl.org/dc/elements/1.1/"
   xmlns:cc="http://creativecommons.org/ns#"
   xmlns:rdf="http://www.w3.org/1999/02/22-rdf-syntax-ns#"
   xmlns:svg="http://www.w3.org/2000/svg"
   xmlns="http://www.w3.org/2000/svg"
   xmlns:sodipodi="http://sodipodi.sourceforge.net/DTD/sodipodi-0.dtd"
   xmlns:inkscape="http://www.inkscape.org/namespaces/inkscape"
   viewBox="0 -256 1792 1792"
   id="svg3037"
   version="1.1"
   inkscape:version="0.48.3.1 r9886"
   width="100%"
   height="100%"
   sodipodi:docname="Circle_font_awesome.svg">
  <metadata
     id="metadata3047">
    <rdf:RDF>
      <cc:Work
         rdf:about="">
        <dc:format>image/svg+xml</dc:format>
        <dc:type
           rdf:resource="http://purl.org/dc/dcmitype/StillImage" />
        <dc:title></dc:title>
      </cc:Work>
    </rdf:RDF>
  </metadata>
  <defs
     id="defs3045" />
  <sodipodi:namedview
     pagecolor="#ffffff"
     bordercolor="#666666"
     borderopacity="1"
     objecttolerance="10"
     gridtolerance="10"
     guidetolerance="10"
     inkscape:pageopacity="0"
     inkscape:pageshadow="2"
     inkscape:window-width="1920"
     inkscape:window-height="1024"
     id="namedview3043"
     showgrid="false"
     inkscape:zoom="0.13169643"
     inkscape:cx="-577.08474"
     inkscape:cy="896.00001"
     inkscape:window-x="0"
     inkscape:window-y="27"
     inkscape:window-maximized="1"
     inkscape:current-layer="layer1" />
  <g
     inkscape:groupmode="layer"
     id="layer1"
     inkscape:label="Icon">
    <g
       transform="matrix(1,0,0,-1,128.00001,1280)"
       id="g3039">
      <path
         style="fill:currentColor"
         d="M 896 128 C 756.66667 128 628.16667 162.33333 510.5 231 C 392.83333 299.66667 299.66667 392.83333 231 510.5 C 162.33333 628.16667 128 756.66667 128 896 C 128 1035.3333 162.33333 1163.8333 231 1281.5 C 299.66667 1399.1667 392.83333 1492.3333 510.5 1561 C 628.16667 1629.6667 756.66667 1664 896 1664 C 1035.3333 1664 1163.8333 1629.6667 1281.5 1561 C 1399.1667 1492.3333 1492.3333 1399.1667 1561 1281.5 C 1629.6667 1163.8333 1664 1035.3333 1664 896 C 1664 756.66667 1629.6667 628.16667 1561 510.5 C 1492.3333 392.83333 1399.1667 299.66667 1281.5 231 C 1163.8333 162.33333 1035.3333 128 896 128 z M 816.8125 348.21875 L 975.1875 348.21875 C 981.84475 348.21875 987.66331 350.23938 992.65625 354.28125 C 997.64919 358.32318 1000.3682 363.41202 1000.8438 369.59375 L 1020.8125 500.84375 C 1044.1129 508.45208 1065.535 517.26413 1085.0312 527.25 L 1186.3125 450.90625 C 1190.5922 446.62658 1196.3048 444.5 1203.4375 444.5 C 1209.6192 444.5 1215.5437 446.8698 1221.25 451.625 C 1282.5917 508.2116 1321.8188 548.62359 1338.9375 572.875 C 1342.2662 576.6791 1343.9375 581.90523 1343.9375 588.5625 C 1343.9375 594.26874 1342.0229 599.73804 1338.2188 604.96875 C 1331.086 614.9546 1318.9624 630.77017 1301.8438 652.40625 C 1284.7251 674.04231 1271.9031 690.79955 1263.3438 702.6875 C 1275.7072 726.4634 1285.461 749.7689 1292.5938 772.59375 L 1423.125 792.5625 C 1429.3068 793.51354 1434.2896 796.50706 1438.0938 801.5 C 1441.8979 806.49294 1443.7812 812.06827 1443.7812 818.25 L 1443.7812 976.59375 C 1443.7812 982.29997 1441.8979 987.7693 1438.0938 993 C 1434.2896 998.23069 1429.5187 1001.3302 1423.8125 1002.2812 L 1291.875 1022.25 C 1282.8402 1047.928 1273.5728 1069.5621 1264.0625 1087.1562 C 1280.7056 1110.9321 1306.1377 1143.7482 1340.375 1185.5938 C 1345.1302 1191.3 1347.5 1197.2558 1347.5 1203.4375 C 1347.5 1209.6192 1345.3734 1215.0573 1341.0938 1219.8125 C 1328.2548 1237.4067 1304.706 1263.1132 1270.4688 1296.875 C 1236.2314 1330.6368 1213.8989 1347.5 1203.4375 1347.5 C 1197.7313 1347.5 1191.5323 1345.3734 1184.875 1341.0938 L 1086.4375 1264.0625 C 1065.5147 1274.9994 1043.8806 1284.0235 1021.5312 1291.1562 C 1013.923 1355.8267 1007.0255 1400.0366 1000.8438 1423.8125 C 997.51513 1437.127 988.97751 1443.7812 975.1875 1443.7812 L 816.8125 1443.7812 C 810.15525 1443.7812 804.33669 1441.7607 799.34375 1437.7188 C 794.35081 1433.6769 791.63177 1428.588 791.15625 1422.4062 L 771.1875 1291.1562 C 747.88713 1283.548 726.46499 1274.7359 706.96875 1264.75 L 606.40625 1341.0938 C 601.65107 1345.3734 595.69527 1347.5 588.5625 1347.5 C 581.90525 1347.5 575.9807 1344.8869 570.75 1339.6562 C 510.83476 1285.4472 471.60771 1245.4905 453.0625 1219.8125 C 449.73388 1215.0573 448.0625 1209.6192 448.0625 1203.4375 C 448.0625 1197.7313 449.97711 1192.2619 453.78125 1187.0312 C 460.91401 1177.0454 473.03759 1161.2298 490.15625 1139.5938 C 507.27489 1117.9577 520.09693 1101.2005 528.65625 1089.3125 C 515.81726 1065.5366 506.06349 1041.9879 499.40625 1018.6875 L 368.875 999.4375 C 362.69327 998.48646 357.7104 995.49294 353.90625 990.5 C 350.10211 985.50707 348.21875 979.93173 348.21875 973.75 L 348.21875 815.40625 C 348.21875 809.70004 350.10211 804.2307 353.90625 799 C 357.7104 793.7693 362.23806 790.66978 367.46875 789.71875 L 500.125 769.75 C 506.78224 747.87618 516.04955 725.99883 527.9375 704.125 C 508.91679 677.02048 483.48471 644.20447 451.625 605.6875 C 446.86982 599.98132 444.5 594.26874 444.5 588.5625 C 444.5 583.80737 446.62659 578.36929 450.90625 572.1875 C 463.26972 555.06884 486.71246 529.49953 521.1875 495.5 C 555.66255 461.50053 578.10111 444.5 588.5625 444.5 C 594.74423 444.5 600.94325 446.8698 607.125 451.625 L 705.5625 527.9375 C 726.48529 517.00057 748.11942 507.97655 770.46875 500.84375 C 778.07704 436.17335 784.97452 391.96337 791.15625 368.1875 C 794.48488 354.87297 803.02248 348.21875 816.8125 348.21875 z M 896 713.40625 C 845.59511 713.40625 802.5701 731.2424 766.90625 766.90625 C 731.2424 802.57009 713.40625 845.59511 713.40625 896 C 713.40625 946.4049 731.2424 989.42991 766.90625 1025.0938 C 802.5701 1060.7576 845.59511 1078.5938 896 1078.5938 C 946.40491 1078.5938 989.42993 1060.7576 1025.0938 1025.0938 C 1060.7576 989.42991 1078.5938 946.4049 1078.5938 896 C 1078.5938 845.59511 1060.7576 802.57009 1025.0938 766.90625 C 989.42993 731.2424 946.40491 713.40625 896 713.40625 z "
         transform="matrix(1,0,0,-1,-128.00001,1536)"
         id="path3041" />
    </g>
  </g>
</svg>
