<?xml version="1.0" encoding="UTF-8" standalone="no"?>
<svg
   xmlns:dc="http://purl.org/dc/elements/1.1/"
   xmlns:cc="http://creativecommons.org/ns#"
   xmlns:rdf="http://www.w3.org/1999/02/22-rdf-syntax-ns#"
   xmlns:svg="http://www.w3.org/2000/svg"
   xmlns="http://www.w3.org/2000/svg"
   version="1.1"
   id="svg4639"
   width="494.76932"
   height="236.81775"
   viewBox="0 0 494.76931 236.81775">
  <metadata
     id="metadata4645">
    <rdf:RDF>
      <cc:Work
         rdf:about="">
        <dc:format>image/svg+xml</dc:format>
        <dc:type
           rdf:resource="http://purl.org/dc/dcmitype/StillImage" />
        <dc:title></dc:title>
      </cc:Work>
    </rdf:RDF>
  </metadata>
  <defs
     id="defs4643" />
  <g
     id="g4673"
     transform="matrix(1,0,0,0.88,-48.69788,-2.2)">
    <path
       style="fill:#fcc327"
       d="M 78.5418,209.29666 C 61.85035,186.73814 51.00726,156.90681 49.29734,128.83971 L 48.69788,119 h 8.00758 8.00758 l 0.68931,9.13112 c 1.96878,26.07999 11.43828,52.04922 26.13218,71.66511 3.00601,4.01292 5.46547,7.43293 5.46547,7.60003 0,0.16709 -2.68861,2.64229 -5.97469,5.50044 l -5.9747,5.19663 z"
       id="path4683" />
    <path
       style="fill:#d60311"
       d="M 79.75,114.25054 49,113.9711 V 82.985548 52 h 31 31 V 66.961067 81.922134 L 102.25,82.211067 93.5,82.5 93.218265,94.25 92.936529,106 H 101.96826 111 v 4.5 c 0,2.475 -0.1125,4.39425 -0.25,4.26499 -0.1375,-0.12925 -14.0875,-0.36075 -31,-0.51445 z"
       id="path4679" />
    <path
       style="fill:#059229"
       d="m 187.12095,271.3419 c -2.2362,-0.48391 -2.3418,-0.82488 -1.75869,-5.67836 0.34119,-2.83995 0.62427,-6.08211 0.62905,-7.20481 0.008,-1.97057 0.57151,-2.04156 16.25869,-2.04987 26.66496,-0.0141 49.22743,-5.80161 69.93799,-17.93973 3.33397,-1.95399 6.16091,-3.4214 6.28208,-3.26092 0.12117,0.16049 2.07725,3.06087 4.34685,6.4453 l 4.12655,6.15351 -2.26202,1.48213 c -5.56586,3.6469 -23.57548,12.04748 -31.49107,14.68901 -15.93805,5.31872 -27.07992,7.13321 -46.19038,7.52228 -9.625,0.19596 -18.57057,0.12461 -19.87905,-0.15854 z"
       id="path4677" />
    <path
       style="fill:#222221"
       d="m 97.272621,156.73194 c 0.267629,-0.69743 7.290769,-13.08273 15.606989,-27.5229 C 121.19582,114.76888 128,102.5145 128,101.9771 128,101.38439 122.09896,101 113,101 H 98 v -7 -7 h 28 c 15.4,0 28,0.17613 28,0.3914 0,0.21526 -6.975,12.58163 -15.5,27.4808 -8.525,14.89917 -15.5,27.54805 -15.5,28.1086 0,0.65109 5.95949,1.0192 16.5,1.0192 H 156 v 7 7 h -29.60699 c -23.49958,0 -29.506611,-0.26158 -29.120389,-1.26806 z M 170.97627,136.75 c -8.93394,-4.51969 -13.97392,-15.6045 -12.56098,-27.62636 2.16654,-18.43392 17.78727,-27.16295 29.56585,-16.52172 C 191.96475,96.20088 195,102.93669 195,108.17814 V 111 h -16.62723 -16.62723 l 0.45879,4.75 c 1.04124,10.78024 7.99346,18.25 16.98555,18.25 4.68227,0 11.88957,-2.7015 13.30129,-4.98571 1.15125,-1.86276 2.32852,-1.04279 1.77418,1.23571 -0.89048,3.6601 -3.28388,5.67802 -8.61086,7.25996 -6.79919,2.01915 -9.45683,1.88155 -14.67822,-0.75996 z m 19.37084,-29.50262 c 0.80242,-1.29835 -2.07444,-8.32824 -4.43761,-10.84371 -3.15218,-3.35534 -8.2001,-4.5913 -12.65341,-3.09812 -4.22261,1.41582 -8.94806,6.90429 -9.8569,11.4485 L 162.75,108 h 13.56598 c 7.46129,0 13.7753,-0.33868 14.03113,-0.75262 z m 68.50895,30.23622 C 254.72262,135.23809 254,131.34933 254,111.35078 V 93 h -5.5 c -4.83333,0 -5.5,-0.24242 -5.5,-2 0,-1.75758 0.66667,-2 5.5,-2 H 254 V 64.46788 c 0,-26.32917 -0.51146,-29.61143 -5.11687,-32.83719 -4.94375,-3.46273 -12.70555,-1.3522 -17.33144,4.71265 C 229.03878,39.63795 229,39.95707 229,57.34439 229,74.33333 228.9245,75 227,75 c -1.94558,0 -2,-0.66667 -2,-24.5 0,-23.83333 0.0544,-24.5 2,-24.5 1.67642,0 2,0.66667 2,4.12058 v 4.12058 l 3.8666,-3.98426 c 8.44133,-8.69822 20.7906,-5.35366 24.08939,6.52416 0.57903,2.08485 1.03531,14.37427 1.03843,27.96894 L 258,89 h 6 c 5.33333,0 6,0.22222 6,2 0,1.77778 -0.66667,2 -6,2 h -6 v 18.27749 C 258,132.21114 258.52136,134 264.62245,134 c 1.92997,0 4.37945,-0.46583 5.44329,-1.03518 1.66643,-0.89185 1.93426,-0.6977 1.93426,1.40217 0,4.09099 -7.90155,5.96455 -13.14394,3.11661 z M 205,113.5 c 0,-23.83333 0.0544,-24.5 2,-24.5 1.67642,0 2,0.66667 2,4.12058 v 4.12058 l 3.94488,-4.06492 c 7.72203,-7.95703 18.18916,-6.56658 23.24902,3.08839 2.01032,3.83598 2.25744,6.00345 2.62069,22.98537 0.3915,18.30268 0.35267,18.75 -1.62734,18.75 -1.95175,0 -2.04086,-0.68974 -2.35783,-18.25 -0.29316,-16.24109 -0.5552,-18.63527 -2.38055,-21.75 -4.27132,-7.28846 -13.56351,-7.18883 -19.89952,0.21338 L 209,102.36 v 17.82 c 0,17.15333 -0.0748,17.82 -2,17.82 -1.94558,0 -2,-0.66667 -2,-24.5 z M 186.86198,73.16799 c -2.65459,-2.37188 -3.2403,-3.71232 -3.60485,-8.25 -0.36042,-4.4863 -0.033,-6.00405 1.9038,-8.82604 3.47594,-5.06449 6.55484,-6.92339 14.58907,-8.80825 l 7.25,-1.70088 -0.0318,-5.54141 c -0.0334,-5.81709 -1.03984,-7.95397 -4.65246,-9.87807 -4.19548,-2.23452 -10.58984,-0.75063 -15.56574,3.61224 -1.61211,1.41349 -1.75,1.3268 -1.75,-1.10027 0,-2.04346 0.85191,-3.06927 3.79651,-4.5715 5.95461,-3.03781 10.22563,-3.47888 15.03877,-1.55304 6.67119,2.66928 7.16472,4.44927 7.16472,25.84055 0,10.16986 0.39711,18.73607 0.88246,19.03604 0.48536,0.29996 2.06036,-0.38114 3.5,-1.51356 C 217.97332,67.87583 218,67.87513 218,69.8459 c 0,2.0795 -5.48784,6.15414 -8.28858,6.15414 -0.91971,0 -1.82728,-1.25105 -2.22664,-3.06931 -0.60577,-2.75806 -0.842,-2.9224 -2.32946,-1.62059 -6.10928,5.34676 -13.54358,6.1018 -18.29334,1.85788 z M 203.84996,68.99373 208,65.98745 V 57.99373 50 h -3.13398 c -12.9315,0 -22.64186,12.31507 -15.41147,19.54546 3.54623,3.54623 9.02839,3.33612 14.39541,-0.55173 z M 273.25,74.02693 C 270.16079,72.62468 269,71.50896 269,69.9419 c 0,-1.66358 0.39962,-1.98982 1.75,-1.42869 5.31833,2.20997 11.05218,3.48627 13.25,2.94931 4.25486,-1.03951 7,-4.3917 7,-8.54794 C 291,58.49072 288.03332,55.56 278.87566,50.93724 272.17164,47.55305 270,44.29624 270,37.62638 c 0,-5.41092 3.30005,-9.91024 8.53619,-11.63832 C 284.76649,23.93187 294,27.42049 294,31.83062 c 0,2.2552 -0.13523,2.31145 -2.25,0.93602 -1.2375,-0.80487 -3.89891,-2.00378 -5.91425,-2.66427 -7.68825,-2.51965 -14.69884,3.98553 -11.81035,10.95894 0.93732,2.26291 2.99037,3.92867 7.87194,6.38699 11.55726,5.82015 14.96061,11.48347 12.00198,19.97182 -2.75381,7.90072 -11.5785,10.72421 -20.64932,6.60681 z M 116,46 V 17 H 104.5 93 V 10.02789 3.05579 L 124.00053,2.77789 155.00106,2.5 155.00053,9.75 155,17 H 143.5 132 v 29 29 h -8 -8 z m 36,4.5 c 0,-23.6424 0.0684,-24.5 1.95431,-24.5 1.71479,0 1.99055,0.81965 2.25,6.68769 l 0.29569,6.68768 2.71741,-4.11699 c 5.66377,-8.58087 10.65639,-11.40924 15.61405,-8.84553 3.96991,2.05292 5.44581,4.13819 4.66658,6.59334 -0.66232,2.08676 -0.69174,2.08345 -4.0159,-0.45202 -4.72138,-3.60117 -8.02919,-3.3142 -12.14892,1.05399 C 156.72038,40.61982 156,43.2085 156,59.96016 156,74.33333 155.9113,75 154,75 c -1.94558,0 -2,-0.66667 -2,-24.5 z"
       id="path4675" />
    <path
       id="path4709"
       d="m 165,267.1577 c -26.59676,-6.98944 -48.14858,-18.8048 -66.82593,-36.63602 l -9.40435,-8.97831 5.81171,-5.15665 5.81171,-5.15664 1.76573,2.24476 c 2.55229,3.24471 17.33329,15.52959 24.34113,20.23056 12.8234,8.60214 30.97388,16.2722 46.84531,19.79596 l 7.84531,1.74181 -0.63318,4.62842 c -1.19336,8.72307 -1.66565,10.12967 -3.3869,10.08692 C 176.25175,269.93569 170.775,268.67533 165,267.1577 Z"
       style="fill:#005ca9;fill-opacity:1" />
    <g
       aria-label="Zentrum für"
       style="font-style:normal;font-weight:normal;font-size:40px;line-height:1.25;font-family:sans-serif;letter-spacing:0px;word-spacing:0px;fill:#939393;fill-opacity:1;stroke:none"
       id="text4715" />
    <g
       aria-label="Transformationsforschung und"
       style="font-style:normal;font-weight:normal;font-size:40px;line-height:1.25;font-family:sans-serif;letter-spacing:0px;word-spacing:0px;fill:#939393;fill-opacity:1;stroke:none"
       id="text4719" />
    <g
       aria-label="Nachhaltigkeit"
       style="font-style:normal;font-weight:normal;font-size:40px;line-height:1.25;font-family:sans-serif;letter-spacing:0px;word-spacing:0px;fill:#939393;fill-opacity:1;stroke:none"
       id="text4715-3">
      <path
         id="path6118"
         style="font-style:normal;font-variant:normal;font-weight:normal;font-stretch:normal;font-size:34.66666794px;font-family:'Nimbus Sans Narrow';-inkscape-font-specification:'Nimbus Sans Narrow';letter-spacing:0px;fill:#939393"
         d="m 483.66742,227.17875 c 0.61412,-2.20372 -0.6094,-2.76993 -2.35049,-2.74362 -0.14735,-1.92519 0.65104,-6.6411 -2.52481,-4.44567 -0.40543,1.98545 1.0183,5.23806 -1.98823,4.87468 -1.13227,2.51476 1.37294,1.80415 2.07978,3.13621 -0.0899,4.53336 -0.55057,9.2811 0.31598,13.75018 1.25165,2.98178 7.02759,0.32693 3.30685,-1.5704 -2.88879,-2.27387 -0.60648,-7.47376 -1.26575,-10.97927 -0.44437,-2.36283 0.4035,-2.11069 2.42667,-2.02211 z m -9.20888,-2.53067 c -4.34166,-1.06032 -1.85708,4.58309 -2.496,7.02156 0,3.70304 0,7.40607 0,11.10911 4.34166,1.06032 1.85708,-4.58309 2.496,-7.02156 0,-3.70304 0,-7.40607 0,-11.10911 z m 0,-3.29333 c 0.46583,-1.93993 -0.24306,-4.83951 -2.55573,-3.0481 -0.13511,2.05488 -0.1487,3.85559 2.55573,3.0481 z m -8.21869,15.73866 c -0.43964,5.29735 -8.7034,3.9279 -8.2382,-1.12571 1.57609,-2.73215 6.111,-0.59516 8.93099,-1.26629 3.94111,0.73725 1.27135,-5.36286 0.547,-7.46533 -2.04198,-4.51021 -8.79403,-3.81079 -10.69959,0.42224 -1.75463,3.89775 -1.95089,8.83022 0.16662,12.67072 2.128,3.85952 8.19579,3.98916 10.5059,0.28256 1.25729,-2.01734 2.29362,-4.39207 -1.21272,-3.51819 z m -8.14667,-4.81866 c -0.5818,-3.60881 4.2395,-7.58719 6.99383,-4.11694 2.06737,1.94222 1.32196,5.23328 -1.85802,4.11694 -1.71194,0 -3.42387,0 -5.13581,0 z m -9.81608,-0.86667 c 1.50239,-2.10931 4.96407,-5.25532 5.23722,-6.71422 -3.88191,-1.03394 -5.19944,3.77058 -7.61304,5.81548 -2.61711,4.16775 -1.06243,-3.01775 -1.50685,-4.95993 -0.53411,-2.33411 1.11685,-6.82141 -0.91755,-7.67159 -3.36774,0.0434 -0.6316,5.60265 -1.50912,7.87506 0,5.67529 0,11.35058 0,17.02587 5.11516,1.05152 0.42879,-6.14482 3.49758,-8.06961 2.04878,-2.30033 2.68326,3.69484 4.02602,4.90609 0.5055,2.26212 2.54488,4.32736 4.6299,2.80943 -1.94806,-3.6722 -3.89611,-7.34439 -5.84416,-11.01658 z m -9.81338,-6.76 c -1.97986,-0.66414 -2.79232,0.79143 -2.54977,2.2928 -1.54989,-3.60376 -6.41054,-3.75831 -8.57265,-0.56309 -2.58241,3.81634 -2.64566,9.16635 -0.69817,13.19588 1.09497,2.26559 3.96599,4.87962 6.47625,3.58516 1.42383,-0.73422 3.64153,-3.16626 2.91513,0.14344 0.0985,4.62073 -6.16779,6.42104 -8.04039,1.91557 -4.56413,-1.5279 -0.247,5.84753 2.6977,5.19375 4.40679,0.84282 8.11719,-3.35543 7.73419,-7.59725 0.0836,-6.05511 0.0157,-12.11089 0.0377,-18.16626 z m -6.37867,2.184 c 4.46938,0.6659 4.07215,6.40945 3.94149,9.80111 -0.7311,5.53489 -8.22142,4.59597 -7.87879,-0.88468 -0.27374,-3.05532 -0.43368,-8.90816 3.9373,-8.91643 z m -9.69421,-2.184 c -4.34166,-1.06032 -1.85708,4.58309 -2.496,7.02156 0,3.70304 0,7.40607 0,11.10911 4.34166,1.06032 1.85708,-4.58309 2.496,-7.02156 0,-3.70304 0,-7.40607 0,-11.10911 z m 0,-3.29333 c 0.46583,-1.93993 -0.24306,-4.83951 -2.55573,-3.0481 -0.13511,2.05488 -0.1487,3.85559 2.55573,3.0481 z m -5.00987,5.824 c 0.61412,-2.20372 -0.6094,-2.76993 -2.35049,-2.74362 -0.14735,-1.92519 0.65104,-6.6411 -2.52481,-4.44567 -0.40543,1.98545 1.0183,5.23807 -1.98823,4.87468 -1.13228,2.51476 1.37293,1.80415 2.07977,3.13621 -0.0898,4.53336 -0.55056,9.2811 0.31599,13.75018 1.25165,2.98178 7.0276,0.32693 3.30685,-1.5704 -2.88879,-2.27387 -0.60648,-7.47376 -1.26575,-10.97927 -0.44437,-2.36283 0.4035,-2.11069 2.42667,-2.02211 z m -9.20888,-9.29067 c -4.79462,-0.94272 -1.57154,5.89954 -2.496,8.60506 0,5.42853 0,10.85707 0,16.28561 4.79462,0.94272 1.57154,-5.89954 2.496,-8.60506 0,-5.42853 0,-10.85707 0,-16.28561 z m -16.12271,12.272 c -0.63941,-5.02658 8.77309,-4.27823 6.74816,0.67306 -2.45965,2.2605 -7.05673,0.57637 -9.11426,4.10123 -1.88998,3.23782 0.0204,8.58685 4.20074,8.41053 2.64594,0.89864 5.29696,-5.0418 6.22125,-0.59443 2.52902,1.92019 4.57495,-2.64208 1.4619,-2.61412 -0.58566,-4.29806 0.39526,-8.77744 -0.54665,-13.04295 -2.15682,-4.79569 -10.81519,-3.62559 -11.20801,1.80752 -0.70719,1.89037 1.22757,1.09559 2.23687,1.25916 z m 6.864,6.344 c 0.43263,4.08111 -7.18223,6.28469 -7.35832,1.42282 -0.11794,-3.25632 6.35979,-4.51003 7.35832,-3.65882 0,0.74533 0,1.49067 0,2.236 z m -22.36271,-18.616 c -4.79462,-0.94272 -1.57154,5.89954 -2.496,8.60506 0,5.42853 0,10.85707 0,16.28561 4.71392,0.97801 1.64084,-5.6067 2.47988,-8.24765 -0.93715,-3.76029 1.93358,-9.86304 6.32838,-6.87989 1.42464,2.52084 0.59548,5.67111 0.83913,8.47402 0.60797,2.08666 -1.46803,6.78355 1.41209,6.68872 2.35324,-0.72235 0.43383,-4.87298 1.08563,-7.01925 -0.1494,-3.13127 0.42316,-6.49623 -0.86322,-9.42453 -2.036,-3.35946 -7.03727,-2.60299 -8.6925,0.43389 -0.24181,-2.9374 -0.0136,-5.95414 -0.0934,-8.91598 z m -15.77604,0 c -4.79462,-0.94272 -1.57154,5.89954 -2.496,8.60506 0,5.42853 0,10.85707 0,16.28561 4.71392,0.97801 1.64084,-5.6067 2.47988,-8.24765 -0.93715,-3.76029 1.93357,-9.86305 6.32837,-6.87989 1.42464,2.52084 0.59548,5.67111 0.83913,8.47402 0.60797,2.08666 -1.46803,6.78355 1.41209,6.68872 2.35324,-0.72235 0.43383,-4.87298 1.08563,-7.01925 -0.1494,-3.13127 0.42316,-6.49622 -0.86322,-9.42454 -2.036,-3.35946 -7.03726,-2.60298 -8.69249,0.4339 -0.24181,-2.9374 -0.0136,-5.95414 -0.0934,-8.91598 z m -4.99742,12.86133 c 0.41669,-4.32935 -4.32734,-8.304 -8.47384,-5.93788 -4.32037,2.46534 -4.43781,8.21927 -3.88844,12.64639 0.54354,4.38012 6.12281,7.85585 9.80174,4.6677 2.42829,-0.86494 3.44106,-7.92265 -0.0109,-5.10444 -0.12729,4.19744 -5.84874,4.76649 -6.9715,0.57545 -0.95044,-3.5478 -1.1831,-9.29107 2.95475,-10.70491 4.07832,-1.3935 2.95379,5.16405 6.58818,3.85769 z m -25.27471,-0.58933 c -0.6394,-5.02658 8.7731,-4.27823 6.74817,0.67306 -2.45966,2.26049 -7.05671,0.57639 -9.11426,4.10124 -1.89,3.23782 0.0204,8.58684 4.20074,8.41052 2.64594,0.89864 5.29696,-5.0418 6.22124,-0.59443 2.52902,1.92019 4.57494,-2.64208 1.4619,-2.61412 -0.58566,-4.29806 0.39526,-8.77744 -0.54665,-13.04295 -2.15681,-4.79569 -10.81518,-3.62558 -11.20801,1.80752 -0.70719,1.89037 1.22757,1.09559 2.23687,1.25916 z m 6.864,6.344 c 0.43264,4.08111 -7.18223,6.28469 -7.35832,1.42282 -0.11794,-3.25632 6.35979,-4.51002 7.35832,-3.65882 0,0.74533 0,1.49067 0,2.236 z m -15.73162,1.59467 c -3.432,-6.73689 -6.864,-13.47378 -10.296,-20.21067 -5.49772,-1.48333 -2.52931,5.73215 -3.25867,8.81922 0,5.35715 0,10.7143 0,16.07145 4.66147,1.18083 1.97281,-4.98617 2.66933,-7.60504 0,-4.20187 0,-8.40375 0,-12.60563 3.48978,6.73689 6.97956,13.47378 10.46934,20.21067 5.16382,1.43709 2.42347,-5.30221 3.08533,-8.19169 0,-5.56633 0,-11.13265 0,-16.69898 -4.66147,-1.18083 -1.97281,4.98617 -2.66933,7.60504 0,4.20187 0,8.40375 0,12.60563 z m 221.49891,-63.04948 c -4.30674,-1.06767 -1.8786,4.48681 -2.496,6.90612 -0.071,1.39018 0.33059,3.66287 -0.73404,1.18729 -2.97402,-3.73913 -8.97084,-1.12778 -9.39671,3.29362 -1.21892,4.40444 -0.64119,9.81535 2.68006,13.12758 2.32747,2.32115 7.17236,-0.69063 7.54643,-1.30486 -0.2224,3.37374 3.9124,1.24815 2.40026,-1.32534 0,-7.2948 0,-14.58961 0,-21.88441 z m -6.51733,8.944 c 4.46938,0.66591 4.07214,6.40946 3.94148,9.80112 -0.7311,5.53489 -8.22142,4.59597 -7.87878,-0.88468 -0.27374,-3.05533 -0.43368,-8.90817 3.9373,-8.91644 z m -19.2427,-2.184 c -4.24054,-0.89572 -1.66855,4.76637 -2.35733,7.15308 0,3.6592 0,7.31839 0,10.97759 4.7092,0.9797 1.64447,-5.59198 2.4794,-8.22974 -0.88292,-3.67636 1.8057,-9.8379 6.19304,-6.88915 1.50426,2.48715 0.76053,5.65623 0.98159,8.45546 0.59764,2.08913 -1.48445,6.79134 1.40544,6.69863 2.35324,-0.72235 0.43383,-4.87297 1.08563,-7.01925 -0.15375,-3.14703 0.65607,-6.64794 -0.89028,-9.47135 -2.18986,-3.99836 -7.75315,-1.54822 -8.96041,0.57768 0.0251,-0.75009 0.20005,-1.50355 0.0629,-2.25295 z m -6.06937,18.13067 c 0,-6.04356 0,-12.08711 0,-18.13067 -4.71783,-0.97669 -1.63913,5.61793 -2.47921,8.26132 0.86564,3.63118 -1.76476,9.8046 -6.12692,6.89979 -1.46173,-2.51157 -0.62504,-5.67384 -0.86914,-8.4781 -0.60725,-2.09426 1.47411,-6.8065 -1.41087,-6.71821 -2.37033,0.77566 -0.41723,5.0179 -1.08599,7.22188 0.11183,3.03535 -0.34039,6.22569 0.6572,9.13209 1.94315,3.48463 7.58571,2.86645 8.95845,-0.7605 -0.33067,2.33746 -0.0789,2.94794 2.35648,2.5724 z m -23.4206,-18.13067 c -1.97986,-0.66414 -2.7923,0.79144 -2.54976,2.2928 -1.54989,-3.60376 -6.41054,-3.75831 -8.57266,-0.56309 -2.58241,3.81634 -2.64565,9.16635 -0.69816,13.19588 1.09497,2.26559 3.96598,4.87962 6.47624,3.58516 1.42383,-0.73422 3.64153,-3.16626 2.91513,0.14344 0.0985,4.62073 -6.16778,6.42104 -8.04039,1.91558 -4.56413,-1.5279 -0.24699,5.84752 2.69771,5.19375 4.40678,0.84282 8.11719,-3.35544 7.73418,-7.59726 0.0836,-6.05511 0.0157,-12.11089 0.0377,-18.16626 z m -6.37867,2.184 c 4.46939,0.6659 4.07215,6.40946 3.94149,9.80112 -0.7311,5.53489 -8.22143,4.59597 -7.87879,-0.88468 -0.27374,-3.05533 -0.43367,-8.90816 3.9373,-8.91644 z m -19.38136,-2.184 c -4.24054,-0.89572 -1.66855,4.76637 -2.35733,7.15308 0,3.6592 0,7.31839 0,10.97759 4.7092,0.9797 1.64447,-5.59198 2.4794,-8.22974 -0.88292,-3.67636 1.8057,-9.8379 6.19304,-6.88915 1.50426,2.48715 0.76053,5.65623 0.98159,8.45546 0.59764,2.08913 -1.48445,6.79134 1.40544,6.69863 2.35324,-0.72235 0.43383,-4.87297 1.08563,-7.01925 -0.15375,-3.14703 0.65607,-6.64794 -0.89028,-9.47135 -2.18986,-3.99836 -7.75315,-1.54822 -8.96041,0.57768 0.0251,-0.75009 0.20005,-1.50355 0.0629,-2.25295 z m -6.06937,18.13067 c 0,-6.04356 0,-12.08711 0,-18.13067 -4.71783,-0.97669 -1.63913,5.61793 -2.47921,8.26132 0.86564,3.63118 -1.76476,9.8046 -6.12692,6.89979 -1.46173,-2.51157 -0.62504,-5.67384 -0.86914,-8.4781 -0.60725,-2.09426 1.47411,-6.8065 -1.41087,-6.71821 -2.37033,0.77566 -0.41723,5.0179 -1.08599,7.22188 0.11183,3.03535 -0.34039,6.22569 0.6572,9.13209 1.94315,3.48463 7.58571,2.86645 8.95845,-0.7605 -0.33067,2.33746 -0.0789,2.94794 2.35648,2.5724 z m -25.34406,-24.89067 c -4.79462,-0.94272 -1.57154,5.89954 -2.496,8.60506 0,5.42853 0,10.85707 0,16.28561 4.71392,0.97801 1.64084,-5.6067 2.47988,-8.24765 -0.93715,-3.76029 1.93358,-9.86305 6.32838,-6.87989 1.42464,2.52085 0.59548,5.67111 0.83913,8.47402 0.60797,2.08667 -1.46803,6.78355 1.41209,6.68872 2.35324,-0.72235 0.43383,-4.87297 1.08563,-7.01925 -0.1494,-3.13127 0.42316,-6.49622 -0.86322,-9.42453 -2.036,-3.35946 -7.03727,-2.60299 -8.6925,0.43389 -0.24181,-2.9374 -0.0136,-5.95414 -0.0934,-8.91598 z m -4.9974,12.86134 c 0.41668,-4.32935 -4.32735,-8.30402 -8.47385,-5.93789 -4.32036,2.46534 -4.4378,8.21927 -3.88843,12.64639 0.54354,4.38012 6.12281,7.85585 9.80173,4.6677 2.42829,-0.86494 3.44108,-7.92264 -0.0109,-5.10444 -0.12729,4.19745 -5.84872,4.7665 -6.9715,0.57545 -0.95045,-3.5478 -1.15614,-9.2145 2.95476,-10.70491 3.98861,-1.44607 3.01828,5.18011 6.58818,3.8577 z m -15.08542,-0.936 c 0.4118,-4.53401 -5.24571,-7.14982 -8.92383,-4.83478 -3.36011,2.11488 -3.1639,8.06864 1.02414,9.35364 2.2769,0.69861 7.0899,1.25019 5.58144,4.74326 -2.08836,3.01264 -7.10701,1.39279 -7.36294,-2.00148 -4.42755,-0.89285 -1.01474,5.7393 1.72783,5.89288 3.53552,1.28085 8.32209,-0.82788 8.464,-4.92994 0.60824,-3.84816 -3.4317,-5.82865 -6.61029,-6.22214 -5.39483,-0.66785 -1.30877,-7.5823 2.36522,-4.29689 1.6563,0.87086 1.48874,2.97373 3.73443,2.29545 z m -12.73783,-2.46134 c 1.07388,-2.80026 -1.53407,-4.46549 -3.29009,-1.97448 -0.77818,1.35607 -2.14987,2.76407 -1.59791,0.15123 -0.37518,-2.33351 -3.63004,-0.26179 -2.35734,1.73631 0,5.17121 0,10.34241 0,15.51361 4.80678,0.91028 1.5682,-5.94722 2.48527,-8.68082 -0.31219,-3.12542 0.69361,-7.31458 4.76007,-6.74585 z m -17.19738,-3.224 c -4.67088,-0.0587 -7.14142,5.11212 -7.01406,9.20382 -0.26264,4.13319 1.75761,9.53893 6.46527,9.91603 4.65344,0.37276 7.09691,-4.69081 7.34758,-8.75798 0.26481,-4.29666 -1.60401,-10.29965 -6.79879,-10.36187 z m -0.0347,2.66934 c 4.82238,0.85736 4.96123,7.26457 3.68606,10.87906 -1.763,4.99725 -8.29298,2.56441 -7.98286,-2.23011 -0.39857,-3.06927 0.24185,-8.54302 4.2968,-8.64895 z m -8.44185,0.38133 c 0.58815,-2.16433 -0.55825,-2.83154 -2.36888,-2.69436 -1.76049,-3.23907 3.09616,-3.86956 2.36888,-6.54002 -3.45094,-1.8563 -6.05274,2.83791 -4.95672,5.81611 -0.18262,1.67443 -3.35085,0.32341 -2.08384,2.96282 3.16508,0.0266 1.78911,3.93452 2.04856,6.28344 0,3.25733 0,6.51467 0,9.772 4.06321,1.10292 2.02501,-3.85249 2.496,-6.15164 0,-3.14946 0,-6.29891 0,-9.44836 0.832,0 1.664,1e-5 2.496,1e-5 z m -8.98408,2.63467 c 0.41179,-4.534 -5.24571,-7.14982 -8.92383,-4.83478 -3.36011,2.11488 -3.1639,8.06864 1.02414,9.35364 2.2769,0.69861 7.08989,1.25019 5.58143,4.74326 -2.08836,3.01264 -7.10701,1.39279 -7.36293,-2.00148 -4.42756,-0.89285 -1.01474,5.7393 1.72783,5.89288 3.53551,1.28085 8.32208,-0.82788 8.46399,-4.92994 0.60824,-3.84816 -3.4317,-5.82864 -6.61028,-6.22214 -5.39484,-0.66786 -1.30878,-7.5823 2.36521,-4.29689 1.6563,0.87086 1.48874,2.97374 3.73444,2.29545 z m -24.26938,-5.16534 c -4.24054,-0.89572 -1.66855,4.76637 -2.35733,7.15308 0,3.6592 0,7.31839 0,10.97759 4.7092,0.9797 1.64447,-5.59198 2.4794,-8.22974 -0.88292,-3.67636 1.8057,-9.8379 6.19304,-6.88915 1.50426,2.48715 0.76053,5.65623 0.98159,8.45546 0.59764,2.08913 -1.48445,6.79134 1.40544,6.69863 2.35324,-0.72235 0.43383,-4.87297 1.08563,-7.01925 -0.15375,-3.14703 0.65607,-6.64794 -0.89028,-9.47135 -2.18986,-3.99836 -7.75315,-1.54822 -8.96041,0.57768 0.0251,-0.75009 0.20005,-1.50355 0.0629,-2.25295 z m -11.9627,-0.52 c -4.67088,-0.0587 -7.14141,5.11212 -7.01405,9.20382 -0.26264,4.13318 1.75761,9.53893 6.46526,9.91603 4.65344,0.37276 7.09691,-4.69081 7.34759,-8.75798 0.26482,-4.29666 -1.60402,-10.29966 -6.7988,-10.36187 z m -0.0347,2.66934 c 4.82237,0.85737 4.96124,7.26457 3.68606,10.87906 -1.76301,4.99725 -8.29298,2.56441 -7.98286,-2.23011 -0.39857,-3.06927 0.24186,-8.54302 4.2968,-8.64895 z m -9.86751,-2.14934 c -4.34166,-1.06032 -1.85708,4.58309 -2.496,7.02156 0,3.70304 0,7.40607 0,11.10911 4.34166,1.06032 1.85708,-4.58309 2.496,-7.02156 0,-3.70304 0,-7.40607 0,-11.10911 z m 0,-3.29333 c 0.46583,-1.93993 -0.24306,-4.83951 -2.55573,-3.0481 -0.13511,2.05488 -0.1487,3.85559 2.55573,3.0481 z m -5.00987,5.824 c 0.61412,-2.20372 -0.6094,-2.76993 -2.35049,-2.74362 -0.14735,-1.92519 0.65104,-6.6411 -2.52481,-4.44567 -0.40543,1.98545 1.0183,5.23806 -1.98823,4.87468 -1.13227,2.51476 1.37294,1.80415 2.07978,3.13621 -0.0899,4.53337 -0.55057,9.2811 0.31598,13.75019 1.25165,2.98179 7.0276,0.32692 3.30685,-1.57041 -2.88879,-2.27386 -0.60648,-7.47376 -1.26575,-10.97927 -0.44437,-2.36283 0.4035,-2.11069 2.42667,-2.02211 z m -19.03471,2.98133 c -0.63941,-5.02658 8.77309,-4.27823 6.74816,0.67306 -2.45965,2.26049 -7.05672,0.57639 -9.11426,4.10124 -1.88999,3.23782 0.0204,8.58684 4.20074,8.41052 2.64594,0.89864 5.29697,-5.0418 6.22125,-0.59442 2.52901,1.92019 4.57495,-2.64209 1.4619,-2.61413 -0.58566,-4.29806 0.39526,-8.77743 -0.54665,-13.04294 -2.15681,-4.7957 -10.81519,-3.6256 -11.20801,1.80751 -0.70719,1.89037 1.22757,1.09559 2.23687,1.25916 z m 6.864,6.344 c 0.43263,4.0811 -7.18223,6.2847 -7.35832,1.42283 -0.11794,-3.25633 6.35979,-4.51003 7.35832,-3.65883 0,0.74534 0,1.49067 0,2.236 z m -32.78059,6.27467 c 4.70414,0.98145 1.64809,-5.57686 2.47918,-8.21134 -0.74587,-3.35662 1.39854,-9.67771 5.64998,-6.91792 1.18985,2.59851 0.41493,5.66769 0.64624,8.47241 0.619,2.08758 -1.45649,6.78608 1.41741,6.69205 2.63508,-1.19409 0.2808,-6.35212 1.06149,-9.03159 -1.4494,-3.85117 3.09776,-9.63646 6.17305,-4.99921 0.35508,4.3515 -0.0232,8.85076 0.11399,13.26327 0.41468,1.90649 3.76444,0.41773 2.48027,-1.71833 -0.1219,-4.453 0.42052,-8.99958 -0.46484,-13.38332 -1.58256,-3.94098 -6.74705,-3.19065 -8.64812,-0.32616 -1.7771,-2.85366 -5.66678,-3.68504 -7.68817,-0.47125 -1.26162,2.00584 -0.98042,-4.08336 -3.22048,-0.89803 0,5.84314 0,11.68628 0,17.52942 z m -1.88717,-15.42667 c 1.07388,-2.80026 -1.53406,-4.46549 -3.29008,-1.97448 -0.77818,1.35607 -2.14988,2.76408 -1.59792,0.15123 -0.37518,-2.33351 -3.63003,-0.26178 -2.35733,1.73631 0,5.17121 0,10.34241 0,15.51361 4.80678,0.91028 1.5682,-5.94722 2.48527,-8.68082 -0.31219,-3.12542 0.6936,-7.31458 4.76006,-6.74585 z m -17.19737,-3.224 c -4.67088,-0.0587 -7.14142,5.11212 -7.01406,9.20382 -0.26264,4.13319 1.75761,9.53893 6.46527,9.91603 4.65344,0.37276 7.09691,-4.69081 7.34759,-8.75798 0.26482,-4.29666 -1.60402,-10.29966 -6.7988,-10.36187 z m -0.0347,2.66934 c 4.82238,0.85736 4.96125,7.26457 3.68607,10.87906 -1.76301,4.99725 -8.29299,2.56442 -7.98287,-2.23011 -0.39857,-3.06927 0.24185,-8.54302 4.2968,-8.64895 z m -8.44184,0.38133 c 0.58815,-2.16433 -0.55825,-2.83154 -2.36888,-2.69436 -1.76049,-3.23907 3.09616,-3.86956 2.36888,-6.54002 -3.45094,-1.8563 -6.05274,2.83791 -4.95672,5.81611 -0.18262,1.67443 -3.35085,0.32341 -2.08384,2.96282 3.16508,0.0266 1.78911,3.93452 2.04856,6.28344 0,3.25733 0,6.51467 0,9.772 4.06321,1.10292 2.02501,-3.85249 2.496,-6.15164 0,-3.14946 0,-6.29891 0,-9.44836 0.832,0 1.664,1e-5 2.496,1e-5 z m -8.98409,2.63467 c 0.4118,-4.53401 -5.24571,-7.14982 -8.92383,-4.83478 -3.36011,2.11488 -3.1639,8.06864 1.02414,9.35364 2.2769,0.69861 7.0899,1.25019 5.58144,4.74326 -2.08836,3.01264 -7.10701,1.39279 -7.36294,-2.00148 -4.42755,-0.89285 -1.01474,5.7393 1.72783,5.89288 3.53552,1.28085 8.32209,-0.82788 8.464,-4.92994 0.60824,-3.84816 -3.4317,-5.82865 -6.61029,-6.22214 -5.39483,-0.66785 -1.30877,-7.5823 2.36522,-4.29689 1.6563,0.87086 1.48874,2.97373 3.73443,2.29545 z m -24.26937,-5.16534 c -4.24055,-0.89573 -1.66856,4.76637 -2.35734,7.15308 0,3.6592 0,7.31839 0,10.97759 4.7092,0.9797 1.64447,-5.59198 2.4794,-8.22974 -0.88292,-3.67637 1.80571,-9.8379 6.19305,-6.88915 1.50426,2.48715 0.76053,5.65623 0.98159,8.45546 0.59764,2.08913 -1.48445,6.79134 1.40544,6.69863 2.35324,-0.72235 0.43383,-4.87297 1.08563,-7.01925 -0.15375,-3.14703 0.65608,-6.64794 -0.89028,-9.47135 -2.18987,-3.99836 -7.75315,-1.54822 -8.96041,0.57768 0.0251,-0.75009 0.20005,-1.50355 0.0629,-2.25295 z m -15.91471,5.512 c -0.63941,-5.02658 8.77309,-4.27823 6.74816,0.67306 -2.45965,2.26049 -7.05672,0.57639 -9.11426,4.10124 -1.88999,3.23782 0.0204,8.58684 4.20074,8.41052 2.64594,0.89864 5.29698,-5.04181 6.22125,-0.59442 2.52901,1.92019 4.57495,-2.64209 1.4619,-2.61413 -0.58566,-4.29806 0.39526,-8.77743 -0.54665,-13.04294 -2.15681,-4.7957 -10.81519,-3.6256 -11.20801,1.80751 -0.70719,1.89037 1.22757,1.09559 2.23687,1.25916 z m 6.864,6.344 c 0.43263,4.0811 -7.18223,6.2847 -7.35832,1.42283 -0.11794,-3.25633 6.35979,-4.51003 7.35832,-3.65883 0,0.74534 0,1.49067 0,2.236 z m -10.96983,-9.152 c 1.07388,-2.80026 -1.53407,-4.46549 -3.29009,-1.97448 -0.77818,1.35607 -2.14987,2.76407 -1.59791,0.15123 -0.37518,-2.33351 -3.63004,-0.26179 -2.35734,1.73631 0,5.17121 0,10.34241 0,15.51361 4.80678,0.91028 1.5682,-5.94722 2.48527,-8.68082 -0.31219,-3.12542 0.69361,-7.31458 4.76007,-6.74585 z m -26.44905,-6.448 c 2.33523,0.65946 7.69609,-1.7067 6.93334,2.05075 0,6.60797 0,13.21595 0,19.82392 4.91415,1.19784 2.00487,-5.41964 2.77333,-8.17704 0,-4.56587 0,-9.13175 0,-13.69763 2.13873,-0.64496 6.84467,1.4476 6.90923,-1.36702 0.0768,-3.34626 -5.35399,-0.90597 -7.6136,-1.64898 -2.79049,0.46161 -7.4538,-0.9496 -9.0023,0.754 0,0.754 0,1.508 0,2.262 z m 276.7886,-35.16612 c 1.07388,-2.80026 -1.53406,-4.46549 -3.29008,-1.97448 -0.77818,1.35607 -2.14988,2.76408 -1.59792,0.15123 -0.37518,-2.33351 -3.63003,-0.26178 -2.35733,1.73631 0,5.17121 0,10.34241 0,15.51361 4.80678,0.91028 1.5682,-5.94722 2.48527,-8.68082 -0.31219,-3.12542 0.6936,-7.31458 4.76006,-6.74585 z m -18.27204,-9.048 c -3.86086,-1.86017 -3.37916,5.72612 -0.0588,3.24838 0.2043,-1.06176 -0.0319,-2.16897 0.0588,-3.24838 z m 4.576,0 c -3.86086,-1.86017 -3.37916,5.72612 -0.0588,3.24838 0.2043,-1.06176 -0.0319,-2.16897 0.0588,-3.24838 z m 2.392,24.47467 c 0,-6.04356 0,-12.08711 0,-18.13067 -4.71783,-0.97669 -1.63913,5.61793 -2.47921,8.26132 0.86564,3.63118 -1.76476,9.8046 -6.12692,6.89979 -1.46173,-2.51157 -0.62504,-5.67384 -0.86914,-8.4781 -0.60725,-2.09426 1.47411,-6.8065 -1.41087,-6.71821 -2.37033,0.77566 -0.41723,5.0179 -1.08599,7.22188 0.11183,3.03535 -0.34039,6.22569 0.6572,9.13209 1.94315,3.48463 7.58571,2.86645 8.95845,-0.7605 -0.33067,2.33746 -0.0789,2.94794 2.35648,2.5724 z m -14.36987,-15.6 c 0.58815,-2.16433 -0.55825,-2.83154 -2.36888,-2.69436 -1.76049,-3.23907 3.09616,-3.86956 2.36888,-6.54002 -3.45094,-1.8563 -6.05274,2.83791 -4.95672,5.81611 -0.18262,1.67443 -3.35085,0.32341 -2.08384,2.96282 3.16508,0.0266 1.78911,3.93452 2.04856,6.28344 0,3.25733 0,6.51467 0,9.772 4.06321,1.10292 2.02501,-3.85249 2.496,-6.15164 0,-3.14946 0,-6.29891 0,-9.44836 0.832,0 1.664,1e-5 2.496,1e-5 z m -37.2358,15.6 c 4.70413,0.98144 1.64807,-5.57686 2.47917,-8.21134 -0.74587,-3.35663 1.39854,-9.67771 5.64999,-6.91792 1.18985,2.59851 0.41493,5.66769 0.64624,8.47241 0.619,2.08758 -1.45649,6.78608 1.41741,6.69205 2.63508,-1.19409 0.2808,-6.35212 1.06149,-9.03159 -1.4494,-3.85117 3.09776,-9.63646 6.17305,-4.99921 0.35508,4.3515 -0.0232,8.85076 0.11399,13.26327 0.41468,1.90649 3.76444,0.41773 2.48027,-1.71833 -0.1219,-4.453 0.42052,-8.99958 -0.46484,-13.38332 -1.58256,-3.94098 -6.74706,-3.19065 -8.64812,-0.32617 -1.77711,-2.85365 -5.66677,-3.68503 -7.68817,-0.47124 -1.26162,2.00583 -0.98042,-4.08336 -3.22048,-0.89803 0,5.84314 0,11.68628 0,17.52942 z m -3.71204,0 c 0,-6.04356 0,-12.08711 0,-18.13067 -4.71783,-0.97669 -1.63913,5.61793 -2.47921,8.26132 0.86564,3.63118 -1.76476,9.8046 -6.12692,6.89979 -1.46173,-2.51157 -0.62504,-5.67384 -0.86914,-8.4781 -0.60725,-2.09426 1.47411,-6.8065 -1.41087,-6.71821 -2.37033,0.77566 -0.41723,5.0179 -1.08599,7.22188 0.11183,3.03535 -0.34039,6.22569 0.6572,9.13209 1.94315,3.48463 7.58571,2.86645 8.95845,-0.7605 -0.33067,2.33746 -0.0789,2.94794 2.35648,2.5724 z m -13.95116,-15.42667 c 1.07388,-2.80026 -1.53407,-4.46549 -3.29009,-1.97448 -0.77818,1.35607 -2.14987,2.76407 -1.59791,0.15123 -0.37518,-2.33351 -3.63004,-0.26179 -2.35734,1.73631 0,5.17121 0,10.34241 0,15.51361 4.80678,0.91028 1.5682,-5.94722 2.48527,-8.68082 -0.31219,-3.12542 0.69361,-7.31458 4.76007,-6.74585 z m -10.03655,-0.17333 c 0.61412,-2.20372 -0.6094,-2.76993 -2.35049,-2.74362 -0.14735,-1.92519 0.65104,-6.6411 -2.52481,-4.44567 -0.40543,1.98545 1.0183,5.23806 -1.98823,4.87468 -1.13227,2.51476 1.37294,1.80415 2.07978,3.13621 -0.0899,4.53337 -0.55057,9.2811 0.31598,13.75019 1.25165,2.98179 7.0276,0.32692 3.30685,-1.57041 -2.88879,-2.27386 -0.60648,-7.47376 -1.26575,-10.97927 -0.44437,-2.36283 0.4035,-2.11069 2.42667,-2.02211 z m -18.89604,-2.53067 c -4.24054,-0.89572 -1.66855,4.76637 -2.35733,7.15308 0,3.6592 0,7.31839 0,10.97759 4.7092,0.9797 1.64447,-5.59198 2.4794,-8.22974 -0.88292,-3.67636 1.8057,-9.8379 6.19304,-6.88915 1.50426,2.48715 0.76053,5.65623 0.98159,8.45546 0.59764,2.08913 -1.48445,6.79134 1.40544,6.69863 2.35324,-0.72235 0.43383,-4.87297 1.08563,-7.01925 -0.15375,-3.14703 0.65607,-6.64794 -0.89028,-9.47135 -2.18986,-3.99836 -7.75315,-1.54822 -8.96041,0.57768 0.0251,-0.75009 0.20005,-1.50355 0.0629,-2.25295 z m -8.01071,12.44534 c -0.43965,5.29735 -8.70339,3.92789 -8.2382,-1.12572 1.5761,-2.73214 6.111,-0.59515 8.93099,-1.26628 3.94111,0.73725 1.27135,-5.36286 0.547,-7.46533 -2.04198,-4.51022 -8.79403,-3.8108 -10.69959,0.42223 -1.75463,3.89775 -1.95089,8.83023 0.16662,12.67072 2.128,3.85952 8.1958,3.98917 10.5059,0.28257 1.25729,-2.01735 2.29362,-4.39207 -1.21272,-3.51819 z m -8.14667,-4.81867 c -0.5818,-3.60881 4.2395,-7.58719 6.99383,-4.11694 2.06737,1.94223 1.32196,5.23328 -1.85802,4.11694 -1.71194,0 -3.42387,0 -5.13581,0 z m -4.50504,7.488 c -3.69573,-0.38863 -10.29436,0.78108 -12.15716,-0.5915 4.05238,-6.11217 8.10477,-12.22433 12.15716,-18.3365 1.33301,-4.14174 -3.22331,-2.75556 -5.72176,-2.94667 -3.13097,0 -6.26194,0 -9.39291,0 -1.39962,5.09282 5.2935,2.33701 8.14823,3.016 1.87878,-0.0127 4.63747,-0.49984 2.25719,1.78425 -3.78047,5.74925 -7.56095,11.4985 -11.34142,17.24775 -1.32363,4.22975 3.56066,2.53254 6.04351,2.84267 3.33572,0 6.67144,0 10.00716,0 0,-1.00533 0,-2.01067 0,-3.016 z" />
    </g>
  </g>
</svg>
