<?xml version="1.0" encoding="UTF-8" standalone="no" ?>
<svg xmlns="http://www.w3.org/2000/svg" xmlns:svg="http://www.w3.org/2000/svg" version="1.1" width="129.64584" height="39.687477" viewBox="0 0 129.64584 39.687477">
  <path style="stroke:none;" d="M 61.110305,33.131562 H 2.2e-5 v 0.106229 c 0.171953,3.114764 2.68317,5.556931 5.884874,5.639938 h 49.423042 c 0.778598,0 1.556928,-0.166014 2.249282,-0.504448 2.202821,-0.989412 3.576848,-3.025352 3.553085,-5.241719 M 50.062821,30.992865 H 61.110305 V 24.713692 H 50.062821 Z m -12.515766,0 H 48.594541 V 24.713692 H 37.547055 Z m -12.5163,0 H 36.077973 V 24.713692 H 25.030755 Z m -12.515766,0 H 23.562741 V 24.713692 H 12.514989 Z M 11.045907,24.713692 H 2.2e-5 v 6.279173 H 11.045907 Z M 127.76263,5.748061 h 1.88321 V 0 h -1.88321 C 119.52728,0.01148 112.8542,6.712384 112.8542,14.920468 v 4.922769 h 0.009 v 4.923836 0.0045 c 0,0.699288 -0.56633,1.26539 -1.26536,1.26539 -0.69983,0 -1.26588,-0.566102 -1.26588,-1.26539 v -0.0045 -4.923836 h 0.004 V 14.920468 C 110.33563,6.705978 103.65212,8e-4 95.407968,0 c -8.24496,0 -14.9282,6.705978 -14.9282,14.920468 v 4.922769 h 0.009 v 4.923836 0.0045 c 0,0.699288 -0.56633,1.26539 -1.26535,1.26539 -0.69956,0 -1.26589,-0.566102 -1.26589,-1.26539 0,-0.0027 8.1e-4,-0.0027 8.1e-4,-0.0045 h -8.1e-4 v -4.923836 h 0.003 V 14.920468 C 77.960538,6.705978 71.277308,8e-4 63.032881,0 H 2.2e-5 v 5.748061 h 63.03408 v 0.0027 c 5.059286,0.0064 9.158396,4.107646 9.158396,9.166268 v 4.927307 h 0.009 v 4.928373 c 0,3.878111 3.1451,7.022232 7.02474,7.022232 3.87938,0 7.02501,-3.144124 7.02501,-7.022232 l -8.1e-4,-4.928373 v -4.927307 c 0,-5.058622 4.09885,-9.159862 9.15786,-9.166268 5.059282,0.0064 9.158132,4.107646 9.158132,9.166268 v 4.927307 h 0.009 v 4.928373 c 0,3.878111 3.1451,7.022232 7.0242,7.022232 3.87964,0 7.0258,-3.144124 7.0258,-7.022232 l -0.002,-4.928373 v -4.927307 c 1.5e-4,-5.052216 4.08778,-9.149186 9.13852,-9.166268 z m -80.029727,7.895541 v 3.17802 H 47.520899 13.502922 13.385171 v -3.17802 z m 81.912937,0 V 7.895567 h -1.88321 v -0.0027 c -3.8751,0.0045 -7.01593,3.145965 -7.01593,7.021404 v 0.01068 4.917431 4.928374 c 0,5.058623 -4.09858,9.160129 -9.15733,9.166268 -5.05982,-0.0061 -9.15893,-4.107645 -9.15893,-9.166268 v -4.928374 h -0.009 v -4.928107 c 0,-3.878108 -3.144832,-7.022232 -7.024462,-7.022232 -3.87964,0 -7.02474,3.144124 -7.02474,7.022232 v 0.01068 4.917431 4.928373 c 0,5.058623 -4.09885,9.16013 -9.15733,9.166269 -5.05956,-0.0061 -9.15868,-4.107646 -9.15868,-9.166269 v -4.928373 h -0.009 v -4.928107 c 0,-3.873571 -3.138698,-7.015025 -7.013525,-7.021431 v 0.0027 H 0 v 5.748035 H 10.326831 V 16.82163 H 10.214154 5.712921 c -3.095435,0.166012 -5.50599,2.661027 -5.709183,5.746964 h 61.104943 c -0.05954,-2.297504 -1.515274,-4.335313 -3.633721,-5.24065 -0.691286,-0.337632 -1.471752,-0.506316 -2.250083,-0.506316 h -4.328745 -0.105468 v -3.17802 h 12.243417 v 0.0072 c 0.695023,0.0043 1.25681,0.568772 1.25681,1.264322 v 0.0053 4.922769 h -0.0035 v 4.923835 c 0,8.213689 6.682957,14.919641 14.927647,14.920442 8.24497,0 14.92766,-6.706753 14.92766,-14.920442 v -4.923835 h -0.009 V 14.92043 h 8.1e-4 c 0,-0.0027 -8.1e-4,-0.0035 -8.1e-4,-0.0053 0,-0.699286 0.56713,-1.265389 1.26589,-1.265389 0.69903,0 1.26536,0.566103 1.26536,1.265389 v 0.0053 4.922769 h -0.004 v 4.923835 c 0,8.213689 6.683232,14.919641 14.928182,14.920442 8.24444,0 14.9282,-6.706753 14.9282,-14.920442 v -4.923835 h -0.01 v -4.922769 -0.0053 c 0,-0.69555 0.56098,-1.258183 1.25493,-1.264322 v -0.0072 z" />
</svg>
