<?xml version="1.0" encoding="UTF-8" standalone="no"?>
<svg
   xmlns:dc="http://purl.org/dc/elements/1.1/"
   xmlns:cc="http://creativecommons.org/ns#"
   xmlns:rdf="http://www.w3.org/1999/02/22-rdf-syntax-ns#"
   xmlns:svg="http://www.w3.org/2000/svg"
   xmlns="http://www.w3.org/2000/svg"
   id="svg5281"
   version="1.1"
   viewBox="0 0 15.050205 15.049852"
   height="15.049852mm"
   width="15.050205mm">
  <defs
     id="defs5275" />
  <metadata
     id="metadata5278">
    <rdf:RDF>
      <cc:Work
         rdf:about="">
        <dc:format>image/svg+xml</dc:format>
        <dc:type
           rdf:resource="http://purl.org/dc/dcmitype/StillImage" />
        <dc:title></dc:title>
      </cc:Work>
    </rdf:RDF>
  </metadata>
  <g
     transform="translate(2.2374e-7,-281.95015)"
     id="layer1">
    <g
       id="g3764"
       transform="matrix(0.35277777,0,0,-0.35277777,15.050205,289.4749)">
      <path
         d="m 0,0 c 0,-11.781 -9.551,-21.331 -21.332,-21.331 -11.779,0 -21.33,9.55 -21.33,21.331 0,11.78 9.551,21.33 21.33,21.33 C -9.551,21.33 0,11.78 0,0"
         style="fill:#c8d300;fill-opacity:1;fill-rule:evenodd;stroke:none"
         id="path3766" />
    </g>
    <g
       transform="matrix(0.35277777,0,0,-0.35277777,7.2191752,286.03704)"
       id="g4048">
      <path
         id="path4050"
         style="fill:#ffffff;fill-opacity:1;fill-rule:nonzero;stroke:none"
         d="M 0,0 C 1.685,0.472 2.67,2.221 2.196,3.907 1.724,5.593 -0.024,6.577 -1.71,6.105 -3.396,5.633 -4.381,3.884 -3.909,2.198 -3.438,0.512 -1.688,-0.472 0,0" />
    </g>
    <g
       transform="matrix(0.35277777,0,0,-0.35277777,12.208015,292.63286)"
       id="g4052">
      <path
         id="path4054"
         style="fill:#ffffff;fill-opacity:1;fill-rule:nonzero;stroke:none"
         d="m 0,0 -5.738,1.363 -4.054,13.996 3.776,-1.561 c 1.127,-3.049 1.123,-3.077 1.412,-3.695 0.596,-1.285 2.535,-0.582 2.183,0.79 -0.065,0.26 -0.14,0.53 -0.22,0.811 L -3.95,15.11 c -0.154,0.394 -0.457,0.71 -0.846,0.876 l -5.885,2.519 c -0.532,0.269 -1.176,0.334 -1.851,0.191 -0.624,-0.132 -2.353,-0.614 -2.989,-0.836 -0.57,-0.194 -0.983,-0.678 -1.108,-1.26 -0.079,-0.367 0.077,0.212 -1.592,-5.691 -3.786,-1.924 -3.352,-1.695 -3.689,-1.88 -1.251,-0.687 -0.422,-2.592 0.928,-2.131 0.316,0.107 0.642,0.228 0.978,0.368 l 3.276,1.643 c 0.386,0.194 0.675,0.536 0.798,0.948 l 0.899,2.984 1.78,-5.969 c -1.687,-1.244 -4.201,-3.11 -4.201,-3.11 -0.527,-0.387 -0.723,-1.068 -0.56,-1.708 l 0.64,-6.869 c 0.239,-2.116 3.133,-1.769 3.037,0.132 -0.002,0.075 0.035,-0.323 -0.592,5.982 l 4.522,3.332 c 0.757,-2.423 1.514,-4.849 1.514,-4.849 0.197,-0.625 0.775,-1.034 1.434,-1.087 l 6.7,-1.638 C 1.346,-3.413 1.936,-0.434 0,0" />
    </g>
    <g
       transform="matrix(0.35277777,0,0,-0.35277777,4.2612052,292.20169)"
       id="g4056">
      <path
         id="path4058"
         style="fill:#ffffff;fill-opacity:1;fill-rule:nonzero;stroke:none"
         d="m 0,0 c -1.464,0 -2.651,-1.187 -2.651,-2.651 0,-1.465 1.187,-2.652 2.651,-2.652 1.464,0 2.651,1.187 2.651,2.652 C 2.651,-1.187 1.464,0 0,0" />
    </g>
  </g>
</svg>
