<?xml version="1.0" encoding="UTF-8" standalone="no"?>
<svg
   xmlns:dc="http://purl.org/dc/elements/1.1/"
   xmlns:cc="http://creativecommons.org/ns#"
   xmlns:rdf="http://www.w3.org/1999/02/22-rdf-syntax-ns#"
   xmlns:svg="http://www.w3.org/2000/svg"
   xmlns="http://www.w3.org/2000/svg"
   id="svg5116"
   version="1.1"
   viewBox="0 0 15.050205 15.049852"
   height="15.049852mm"
   width="15.050205mm">
  <defs
     id="defs5110" />
  <metadata
     id="metadata5113">
    <rdf:RDF>
      <cc:Work
         rdf:about="">
        <dc:format>image/svg+xml</dc:format>
        <dc:type
           rdf:resource="http://purl.org/dc/dcmitype/StillImage" />
        <dc:title></dc:title>
      </cc:Work>
    </rdf:RDF>
  </metadata>
  <g
     transform="translate(2.2374e-7,-281.95015)"
     id="layer1">
    <g
       id="g3760"
       transform="matrix(0.35277777,0,0,-0.35277777,15.050205,289.4749)">
      <path
         d="m 0,0 c 0,-11.781 -9.551,-21.331 -21.332,-21.331 -11.779,0 -21.33,9.55 -21.33,21.331 0,11.78 9.551,21.33 21.33,21.33 C -9.551,21.33 0,11.78 0,0"
         style="fill:#3f938a;fill-opacity:1;fill-rule:evenodd;stroke:none"
         id="path3762" />
    </g>
    <g
       id="g4004"
       transform="matrix(0.35277777,0,0,-0.35277777,7.1134052,289.58997)">
      <path
         d="M 0,0 V 1.111 5.374 H 4.916 V -1.694 C 3.471,-1.375 2.089,-0.952 0.748,-0.325 0.5,-0.204 0.253,-0.099 0,0 m 5.505,-1.814 v 7.188 h 1.552 v -7.48 c -0.519,0.093 -1.036,0.187 -1.552,0.292 m 7.056,7.188 V 1.111 0.33 C 12.165,0.011 11.786,-0.319 11.4,-0.66 10.796,-1.193 10.175,-1.744 9.486,-2.161 9.35,-2.244 9.213,-2.321 9.074,-2.393 L 8.787,-2.535 c -0.24,0.115 -0.505,0.198 -0.746,0.247 -0.133,0.022 -0.265,0.05 -0.396,0.072 v 7.59 z M 7.645,8.623 h 5.285 c 0.247,0 0.445,-0.198 0.445,-0.445 V 6.407 c 0,-0.242 -0.198,-0.446 -0.445,-0.446 H 7.645 Z m -2.14,0 H 7.057 V 5.961 H 5.505 Z m -5.874,0 H 4.916 V 5.961 h -5.285 c -0.241,0 -0.445,0.204 -0.445,0.446 v 1.771 c 0,0.247 0.204,0.445 0.445,0.445 m 8.607,0.595 v 1.099 c 0,0.479 -0.241,0.902 -0.605,1.155 0.995,0.688 2.459,1.546 3.377,1.771 0.622,0.154 1.023,-0.225 0.963,-0.946 -0.05,-0.501 0.076,-0.484 0.302,-0.847 0.297,-0.461 0.583,-0.907 0.247,-1.402 C 12.115,9.438 11.29,9.218 10.4,9.218 Z M 4.322,10.317 V 9.218 h -2.16 c -0.891,0 -1.717,0.22 -2.123,0.83 -0.331,0.495 -0.051,0.941 0.247,1.402 0.232,0.363 0.352,0.346 0.308,0.847 -0.067,0.721 0.341,1.1 0.957,0.946 C 2.475,13.018 3.938,12.16 4.928,11.472 4.564,11.219 4.322,10.796 4.322,10.317 m 4.236,1.018 c 0.918,0.077 1.802,0.198 2.606,0.644 0.38,0.208 0.192,0.665 -0.231,0.56 -0.869,-0.208 -1.65,-0.676 -2.375,-1.204 m -7.162,0.644 c 0.81,-0.446 1.689,-0.567 2.607,-0.644 -0.725,0.528 -1.506,0.996 -2.375,1.204 -0.424,0.105 -0.611,-0.352 -0.232,-0.56 m -11.769,-14.938 2.591,-5.879 1.6,0.704 c 0.903,0.396 2.134,0.577 3.586,0.165 L 1.969,-9.267 C 3.376,-9.668 4.96,-9.86 6.253,-9.168 l 4.807,2.557 c 1.551,0.831 2.023,0.903 2.969,2.222 l 2.448,3.41 c 0.687,0.962 -0.034,1.931 -0.956,1.601 -0.48,0.456 -1.03,0.385 -1.64,-0.011 -1.743,-1.133 -2.92,-2.662 -4.56,-3.493 C 9.493,-3.036 9.63,-3.223 9.712,-3.443 10.306,-4.994 8.205,-5.994 6.935,-5.78 l -4.141,0.698 c -1.018,0.171 -2.029,0.138 -2.981,-0.264 -0.346,-0.143 -0.496,0.396 -0.143,0.539 0.995,0.402 2.073,0.462 3.212,0.269 l 1.941,-0.33 2.205,-0.367 c 0.886,-0.155 2.58,0.527 2.172,1.6 -0.137,0.357 -0.621,0.676 -1.269,0.808 -0.958,0.187 -2.002,0.352 -3.108,0.594 -1.352,0.292 -2.8,0.704 -4.305,1.414 -3.174,1.49 -6.365,1.347 -8.867,-0.804 -0.71,-0.605 -1.11,-0.929 -1.991,-1.319 z m 2.459,-6.935 -3.328,7.551 -3.19,-1.001 3.631,-8.227 z M 4.916,10.317 V 9.218 h 2.729 v 1.099 c 0,0.446 -0.363,0.814 -0.815,0.814 h -1.1 c -0.451,0 -0.814,-0.368 -0.814,-0.814"
         style="fill:#ffffff;fill-opacity:1;fill-rule:evenodd;stroke:none"
         id="path4006" />
    </g>
  </g>
</svg>
