<?xml version="1.0" encoding="UTF-8" standalone="no"?>
<svg
   xmlns:dc="http://purl.org/dc/elements/1.1/"
   xmlns:cc="http://creativecommons.org/ns#"
   xmlns:rdf="http://www.w3.org/1999/02/22-rdf-syntax-ns#"
   xmlns:svg="http://www.w3.org/2000/svg"
   xmlns="http://www.w3.org/2000/svg"
   id="svg5396"
   version="1.1"
   viewBox="0 0 15.050205 15.049852"
   height="15.049852mm"
   width="15.050205mm">
  <defs
     id="defs5390" />
  <metadata
     id="metadata5393">
    <rdf:RDF>
      <cc:Work
         rdf:about="">
        <dc:format>image/svg+xml</dc:format>
        <dc:type
           rdf:resource="http://purl.org/dc/dcmitype/StillImage" />
        <dc:title></dc:title>
      </cc:Work>
    </rdf:RDF>
  </metadata>
  <g
     transform="translate(2.2374e-7,-281.95015)"
     id="layer1">
    <g
       id="g3768"
       transform="matrix(0.35277777,0,0,-0.35277777,15.050205,289.4749)">
      <path
         d="m 0,0 c 0,-11.781 -9.551,-21.331 -21.332,-21.331 -11.779,0 -21.33,9.55 -21.33,21.331 0,11.78 9.551,21.33 21.33,21.33 C -9.551,21.33 0,11.78 0,0"
         style="fill:#004089;fill-opacity:1;fill-rule:evenodd;stroke:none"
         id="path3770" />
    </g>
    <g
       id="g4008"
       transform="matrix(0.35277777,0,0,-0.35277777,8.1142052,289.20619)">
      <path
         d="M 0,0 C -0.483,0.277 -2.228,1.377 -1.504,2.369 -0.826,3.299 0,2.322 0,2.322 0,2.322 0.825,3.299 1.505,2.369 2.229,1.377 0.48,0.277 0,0 m 0.015,5.386 h -0.613 -2.167 -0.607 c -1.628,0 -2.96,-1.332 -2.96,-2.962 v -5.93 c 0,-0.931 0.762,-1.692 1.692,-1.692 l 0.282,-9.435 c 0.014,-0.501 0.58,-1.051 1.086,-1.051 h 3.181 c 0.508,0 1.072,0.55 1.094,1.051 l 0.281,9.435 c 0.924,0 1.685,0.761 1.685,1.692 v 5.93 c 0,1.63 -1.331,2.962 -2.954,2.962 m -10.282,2.002 h -0.614 c -1.628,0 -2.961,-1.332 -2.961,-2.961 V -1.51 c 0,-0.931 0.763,-1.693 1.692,-1.693 l 0.283,-9.428 c 0.021,-0.507 0.586,-1.057 1.093,-1.057 h 3.18 c 0.507,0 1.073,0.55 1.085,1.057 l 0.213,7.024 c -0.621,0.487 -1.023,1.248 -1.023,2.101 v 5.93 c 0,1.594 0.951,2.975 2.313,3.596 -0.529,0.818 -1.446,1.368 -2.49,1.368 h -0.606 z m 15.005,0 H 4.132 C 3.09,7.388 2.173,6.838 1.643,6.02 3.003,5.399 3.957,4.018 3.957,2.424 v -5.93 c 0,-0.853 -0.395,-1.614 -1.023,-2.101 l 0.212,-7.024 c 0.013,-0.507 0.585,-1.057 1.085,-1.057 H 7.41 c 0.509,0 1.08,0.55 1.095,1.057 l 0.283,9.428 c 0.929,0 1.691,0.762 1.691,1.693 v 5.937 c 0,1.629 -1.333,2.961 -2.96,2.961 H 6.904 Z m -1.96,3.645 c 0,-1.678 1.363,-3.046 3.047,-3.046 1.678,0 3.047,1.368 3.047,3.046 0,1.686 -1.369,3.047 -3.047,3.047 -1.684,0 -3.047,-1.361 -3.047,-3.047 M -4.726,9.038 c 0,-1.678 1.363,-3.046 3.047,-3.046 1.68,0 3.047,1.368 3.047,3.046 0,1.685 -1.367,3.046 -3.047,3.046 -1.684,0 -3.047,-1.361 -3.047,-3.046 m -7.508,1.995 c 0,-1.678 1.368,-3.046 3.046,-3.046 1.685,0 3.045,1.368 3.045,3.046 0,1.686 -1.36,3.047 -3.045,3.047 -1.678,0 -3.046,-1.361 -3.046,-3.047"
         style="fill:#ffffff;fill-opacity:1;fill-rule:evenodd;stroke:none"
         id="path4010" />
    </g>
  </g>
</svg>
