<?xml version="1.0" encoding="UTF-8" standalone="no"?>
<svg
   xmlns:dc="http://purl.org/dc/elements/1.1/"
   xmlns:cc="http://creativecommons.org/ns#"
   xmlns:rdf="http://www.w3.org/1999/02/22-rdf-syntax-ns#"
   xmlns:svg="http://www.w3.org/2000/svg"
   xmlns="http://www.w3.org/2000/svg"
   id="svg4381"
   version="1.1"
   viewBox="0 0 15.050205 15.049852"
   height="15.049852mm"
   width="15.050205mm">
  <defs
     id="defs4375" />
  <metadata
     id="metadata4378">
    <rdf:RDF>
      <cc:Work
         rdf:about="">
        <dc:format>image/svg+xml</dc:format>
        <dc:type
           rdf:resource="http://purl.org/dc/dcmitype/StillImage" />
        <dc:title></dc:title>
      </cc:Work>
    </rdf:RDF>
  </metadata>
  <g
     transform="translate(2.2374e-7,-281.95015)"
     id="layer1">
    <g
       id="g3736"
       transform="matrix(0.35277777,0,0,-0.35277777,15.050205,289.4749)">
      <path
         d="m 0,0 c 0,-11.781 -9.551,-21.331 -21.332,-21.331 -11.779,0 -21.33,9.55 -21.33,21.331 0,11.78 9.551,21.33 21.33,21.33 C -9.551,21.33 0,11.78 0,0"
         style="fill:#ac612d;fill-opacity:1;fill-rule:evenodd;stroke:none"
         id="path3738" />
    </g>
    <g
       id="g3972"
       transform="matrix(0.35277777,0,0,-0.35277777,3.7244512,293.0497)">
      <path
         d="M 0,0 7.942,-2.098 7.461,-5.392 -1.206,-3.104 Z"
         style="fill:#ffffff;fill-opacity:1;fill-rule:evenodd;stroke:none"
         id="path3974" />
    </g>
    <g
       id="g3976"
       transform="matrix(0.35277777,0,0,-0.35277777,6.2669552,293.52186)">
      <path
         d="m 0,0 -6.188,1.632 0.442,1.685 c 0.25,0.95 0.236,2.19 -0.396,3.554 L -8.13,11.16 c -0.615,1.323 -1.051,2.852 -0.576,4.23 l 1.773,5.129 c 0.57,1.655 0.572,2.132 1.723,3.268 l 2.974,2.94 c 0.835,0.826 1.905,0.268 1.724,-0.692 0.518,-0.4 0.538,-0.952 0.244,-1.615 -0.842,-1.891 -2.169,-3.289 -2.731,-5.031 -0.178,0.144 -0.378,0.251 -0.607,0.298 -1.62,0.343 -2.276,-1.88 -1.867,-3.097 l 1.332,-3.966 c 0.327,-0.975 0.447,-1.977 0.205,-2.975 -0.086,-0.362 0.461,-0.425 0.547,-0.057 0.24,1.043 0.132,2.112 -0.235,3.203 l -0.622,1.859 -0.712,2.112 c -0.283,0.848 0.123,2.621 1.237,2.387 0.378,-0.079 0.767,-0.506 0.992,-1.124 0.334,-0.913 0.66,-1.915 1.07,-2.965 0.502,-1.285 1.134,-2.644 2.067,-4.016 C 2.369,8.158 2.726,4.997 0.999,2.2 0.515,1.408 0.253,0.961 0.011,0.035 Z"
         style="fill:#ffffff;fill-opacity:1;fill-rule:evenodd;stroke:none"
         id="path3978" />
    </g>
    <g
       id="g3980"
       transform="matrix(0.35277777,0,0,-0.35277777,11.325365,293.0497)">
      <path
         d="m 0,0 -7.943,-2.098 0.482,-3.294 8.666,2.288 z"
         style="fill:#ffffff;fill-opacity:1;fill-rule:evenodd;stroke:none"
         id="path3982" />
    </g>
    <g
       id="g3984"
       transform="matrix(0.35277777,0,0,-0.35277777,8.7828952,293.52186)">
      <path
         d="M 0,0 6.187,1.632 5.745,3.317 C 5.496,4.267 5.51,5.507 6.141,6.871 L 8.13,11.16 c 0.615,1.323 1.051,2.852 0.575,4.23 L 6.933,20.519 C 6.362,22.174 6.36,22.651 5.21,23.787 l -2.974,2.94 c -0.835,0.826 -1.905,0.268 -1.724,-0.692 -0.518,-0.4 -0.539,-0.952 -0.245,-1.615 0.842,-1.891 2.169,-3.289 2.731,-5.031 0.179,0.144 0.378,0.251 0.607,0.298 1.62,0.343 2.277,-1.88 1.868,-3.097 L 4.14,12.624 C 3.814,11.649 3.694,10.647 3.936,9.649 4.022,9.287 3.474,9.224 3.389,9.592 3.148,10.635 3.257,11.704 3.623,12.795 l 0.623,1.859 0.711,2.112 C 5.241,17.614 4.835,19.387 3.721,19.153 3.343,19.074 2.953,18.647 2.729,18.029 2.395,17.116 2.07,16.114 1.659,15.064 1.156,13.779 0.524,12.42 -0.408,11.048 -2.369,8.158 -2.727,4.997 -1,2.2 -0.516,1.408 -0.253,0.961 -0.012,0.035 Z"
         style="fill:#ffffff;fill-opacity:1;fill-rule:evenodd;stroke:none"
         id="path3986" />
    </g>
  </g>
</svg>
