<?xml version="1.0" encoding="UTF-8" standalone="no"?>
<svg
   xmlns:dc="http://purl.org/dc/elements/1.1/"
   xmlns:cc="http://creativecommons.org/ns#"
   xmlns:rdf="http://www.w3.org/1999/02/22-rdf-syntax-ns#"
   xmlns:svg="http://www.w3.org/2000/svg"
   xmlns="http://www.w3.org/2000/svg"
   id="svg4719"
   version="1.1"
   viewBox="0 0 15.050205 15.049852"
   height="15.049852mm"
   width="15.050205mm">
  <defs
     id="defs4713" />
  <metadata
     id="metadata4716">
    <rdf:RDF>
      <cc:Work
         rdf:about="">
        <dc:format>image/svg+xml</dc:format>
        <dc:type
           rdf:resource="http://purl.org/dc/dcmitype/StillImage" />
        <dc:title></dc:title>
      </cc:Work>
    </rdf:RDF>
  </metadata>
  <g
     transform="translate(2.2374e-7,-281.95015)"
     id="layer1">
    <g
       id="g3744"
       transform="matrix(0.35277777,0,0,-0.35277777,15.050205,289.4749)">
      <path
         d="m 0,0 c 0,-11.781 -9.551,-21.331 -21.332,-21.331 -11.779,0 -21.33,9.55 -21.33,21.331 0,11.78 9.551,21.33 21.33,21.33 C -9.551,21.33 0,11.78 0,0"
         style="fill:#d73e1a;fill-opacity:1;fill-rule:evenodd;stroke:none"
         id="path3746" />
    </g>
    <g
       id="g3988"
       transform="matrix(0.35277777,0,0,-0.35277777,7.5240452,292.02428)">
      <path
         d="m 0,0 c -3.6,0 -6.518,2.918 -6.518,6.519 0,3.6 2.918,6.518 6.518,6.518 3.6,0 6.518,-2.918 6.518,-6.518 C 6.518,2.918 3.6,0 0,0 m -3.418,16.301 c 0,0.755 0.613,1.37 1.369,1.37 h 4.098 c 0.756,0 1.369,-0.615 1.369,-1.37 v -0.313 h -6.836 z m 16.6,-0.313 H 11.113 8.635 5.475 v 0.313 c 0,1.891 -1.536,3.425 -3.426,3.425 h -4.098 c -1.89,0 -3.426,-1.534 -3.426,-3.425 v -0.313 h -3.16 -2.304 -2.243 c -0.537,0 -0.97,-0.434 -0.97,-0.971 V -1.98 c 0,-0.537 0.433,-0.971 0.97,-0.971 h 2.243 2.304 17.27 2.478 2.069 c 0.535,0 0.97,0.434 0.97,0.971 v 16.997 c 0,0.537 -0.435,0.971 -0.97,0.971"
         style="fill:#ffffff;fill-opacity:1;fill-rule:nonzero;stroke:none"
         id="path3990" />
    </g>
    <g
       id="g3992"
       transform="matrix(0.35277777,0,0,-0.35277777,8.0835552,288.04689)">
      <path
         d="m 0,0 h -3.172 v -3.171 h -3.17 v -3.17 h 3.17 V -9.512 H 0 v 3.171 h 3.17 v 3.17 H 0 Z"
         style="fill:#ffffff;fill-opacity:1;fill-rule:nonzero;stroke:none"
         id="path3994" />
    </g>
  </g>
</svg>
