<?xml version="1.0" encoding="UTF-8" standalone="no"?>
<svg
   xmlns:dc="http://purl.org/dc/elements/1.1/"
   xmlns:cc="http://creativecommons.org/ns#"
   xmlns:rdf="http://www.w3.org/1999/02/22-rdf-syntax-ns#"
   xmlns:svg="http://www.w3.org/2000/svg"
   xmlns="http://www.w3.org/2000/svg"
   id="svg4966"
   version="1.1"
   viewBox="0 0 15.050205 15.049852"
   height="15.049852mm"
   width="15.050205mm">
  <defs
     id="defs4960" />
  <metadata
     id="metadata4963">
    <rdf:RDF>
      <cc:Work
         rdf:about="">
        <dc:format>image/svg+xml</dc:format>
        <dc:type
           rdf:resource="http://purl.org/dc/dcmitype/StillImage" />
        <dc:title></dc:title>
      </cc:Work>
    </rdf:RDF>
  </metadata>
  <g
     transform="translate(2.2374e-7,-281.95015)"
     id="layer1">
    <g
       id="g3752"
       transform="matrix(0.35277777,0,0,-0.35277777,15.050205,289.4749)">
      <path
         d="m 0,0 c 0,-11.781 -9.551,-21.331 -21.332,-21.331 -11.779,0 -21.33,9.55 -21.33,21.331 0,11.78 9.551,21.33 21.33,21.33 C -9.551,21.33 0,11.78 0,0"
         style="fill:#fecd31;fill-opacity:1;fill-rule:evenodd;stroke:none"
         id="path3754" />
    </g>
    <g
       id="g3920"
       transform="matrix(0.35277777,0,0,-0.35277777,11.400826,285.79381)">
      <path
         d="m 0,0 -2.506,-1.703 c -0.27,-0.184 -0.339,-0.549 -0.154,-0.819 0.111,-0.169 0.299,-0.261 0.486,-0.261 0.114,0 0.23,0.034 0.331,0.102 l 2.506,1.702 c 0.27,0.184 0.34,0.551 0.155,0.821 C 0.635,0.112 0.268,0.182 0,0"
         style="fill:#ffffff;fill-opacity:1;fill-rule:nonzero;stroke:none"
         id="path3922" />
    </g>
    <g
       id="g3924"
       transform="matrix(0.35277777,0,0,-0.35277777,11.033232,290.09448)">
      <path
         d="m 0,0 c -0.304,0.121 -0.646,-0.028 -0.768,-0.331 -0.12,-0.303 0.028,-0.647 0.331,-0.768 l 2.814,-1.115 c 0.073,-0.026 0.147,-0.04 0.219,-0.04 0.235,0 0.459,0.141 0.55,0.373 0.121,0.305 -0.029,0.648 -0.333,0.768 z"
         style="fill:#ffffff;fill-opacity:1;fill-rule:nonzero;stroke:none"
         id="path3926" />
    </g>
    <g
       id="g3928"
       transform="matrix(0.35277777,0,0,-0.35277777,10.95608,288.24364)">
      <path
         d="m 0,0 c 0,-0.327 0.263,-0.591 0.592,-0.591 h 3.025 c 0.327,0 0.59,0.264 0.59,0.591 0,0.325 -0.263,0.592 -0.59,0.592 H 0.592 C 0.263,0.592 0,0.325 0,0"
         style="fill:#ffffff;fill-opacity:1;fill-rule:nonzero;stroke:none"
         id="path3930" />
    </g>
    <g
       id="g3932"
       transform="matrix(0.35277777,0,0,-0.35277777,3.0385452,290.8755)">
      <path
         d="M 0,0 2.814,1.115 C 3.115,1.236 3.265,1.58 3.145,1.883 3.025,2.186 2.682,2.335 2.379,2.214 L -0.436,1.101 C -0.74,0.981 -0.888,0.638 -0.767,0.333 c 0.091,-0.232 0.313,-0.374 0.548,-0.374 0.073,0 0.147,0.015 0.219,0.041"
         style="fill:#ffffff;fill-opacity:1;fill-rule:nonzero;stroke:none"
         id="path3934" />
    </g>
    <g
       id="g3936"
       transform="matrix(0.35277777,0,0,-0.35277777,3.9542532,288.24364)">
      <path
         d="m 0,0 c 0,0.325 -0.263,0.592 -0.59,0.592 h -3.025 c -0.329,0 -0.592,-0.267 -0.592,-0.592 0,-0.327 0.263,-0.591 0.592,-0.591 H -0.59 C -0.263,-0.591 0,-0.327 0,0"
         style="fill:#ffffff;fill-opacity:1;fill-rule:nonzero;stroke:none"
         id="path3938" />
    </g>
    <g
       id="g3940"
       transform="matrix(0.35277777,0,0,-0.35277777,10.336989,287.93065)">
      <path
         d="m 0,0 c -0.569,6.744 -8.169,6.648 -8.169,6.648 0,0 -7.6,0.096 -8.168,-6.648 -0.545,-6.454 3.43,-5.689 4.608,-11.811 h 7.122 C -3.433,-5.689 0.546,-6.454 0,0"
         style="fill:#ffffff;fill-opacity:1;fill-rule:nonzero;stroke:none"
         id="path3942" />
    </g>
    <g
       id="g3944"
       transform="matrix(0.35277777,0,0,-0.35277777,9.2738222,285.51977)">
      <path
         d="M 0,0 C 0.211,0 0.416,0.116 0.521,0.316 L 1.939,2.989 C 2.092,3.279 1.981,3.637 1.693,3.79 1.405,3.942 1.047,3.832 0.895,3.544 L -0.524,0.869 C -0.675,0.579 -0.564,0.222 -0.278,0.07 -0.187,0.022 -0.094,0 0,0"
         style="fill:#ffffff;fill-opacity:1;fill-rule:nonzero;stroke:none"
         id="path3946" />
    </g>
    <g
       id="g3948"
       transform="matrix(0.35277777,0,0,-0.35277777,7.6353482,284.83728)">
      <path
         d="m 0,0 v 3.026 c 0,0.327 -0.267,0.591 -0.592,0.591 -0.327,0 -0.593,-0.264 -0.593,-0.591 V 0 c 0,-0.327 0.266,-0.592 0.593,-0.592 C -0.267,-0.592 0,-0.327 0,0"
         style="fill:#ffffff;fill-opacity:1;fill-rule:nonzero;stroke:none"
         id="path3950" />
    </g>
    <g
       id="g3952"
       transform="matrix(0.35277777,0,0,-0.35277777,5.6371772,285.51977)">
      <path
         d="M 0,0 C 0.092,0 0.186,0.022 0.275,0.07 0.562,0.222 0.673,0.579 0.521,0.869 L -0.896,3.544 C -1.049,3.832 -1.407,3.942 -1.693,3.79 -1.983,3.637 -2.092,3.279 -1.941,2.989 L -0.523,0.316 C -0.419,0.116 -0.213,0 0,0"
         style="fill:#ffffff;fill-opacity:1;fill-rule:nonzero;stroke:none"
         id="path3954" />
    </g>
    <g
       id="g3956"
       transform="matrix(0.35277777,0,0,-0.35277777,3.5101762,285.79381)">
      <path
         d="m 0,0 c -0.27,0.182 -0.637,0.112 -0.821,-0.158 -0.184,-0.27 -0.112,-0.637 0.156,-0.821 l 2.504,-1.702 c 0.103,-0.068 0.219,-0.102 0.333,-0.102 0.189,0 0.375,0.092 0.488,0.261 0.186,0.27 0.114,0.635 -0.158,0.819 z"
         style="fill:#ffffff;fill-opacity:1;fill-rule:nonzero;stroke:none"
         id="path3958" />
    </g>
    <g
       id="g3960"
       transform="matrix(0.35277777,0,0,-0.35277777,8.4945372,292.46526)">
      <path
         d="m 0,0 h -5.89 c -0.679,0 -1.226,-0.386 -1.226,-0.861 0,-0.476 0.547,-0.862 1.226,-0.862 H 0 c 0.677,0 1.226,0.386 1.226,0.862 C 1.226,-0.386 0.677,0 0,0"
         style="fill:#ffffff;fill-opacity:1;fill-rule:nonzero;stroke:none"
         id="path3962" />
    </g>
    <g
       id="g3964"
       transform="matrix(0.35277777,0,0,-0.35277777,8.9269002,293.69395)">
      <path
         d="m 0,0 c 0,0.487 -0.549,0.882 -1.226,0.882 h -5.889 c -0.68,0 -1.227,-0.395 -1.227,-0.882 0,-0.487 0.547,-0.88 1.227,-0.88 h 5.889 C -0.549,-0.88 0,-0.487 0,0"
         style="fill:#ffffff;fill-opacity:1;fill-rule:nonzero;stroke:none"
         id="path3966" />
    </g>
    <g
       id="g3968"
       transform="matrix(0.35277777,0,0,-0.35277777,6.8522872,294.27462)">
      <path
         d="m 0,0 c -0.678,0 -1.229,-0.437 -1.229,-0.976 0,-0.538 0.551,-0.973 1.229,-0.973 h 3.419 c 0.678,0 1.226,0.435 1.226,0.973 C 4.645,-0.437 4.097,0 3.419,0 Z"
         style="fill:#ffffff;fill-opacity:1;fill-rule:nonzero;stroke:none"
         id="path3970" />
    </g>
  </g>
</svg>
