<?xml version="1.0" encoding="UTF-8" standalone="no"?>
<svg
   xmlns:dc="http://purl.org/dc/elements/1.1/"
   xmlns:cc="http://creativecommons.org/ns#"
   xmlns:rdf="http://www.w3.org/1999/02/22-rdf-syntax-ns#"
   xmlns:svg="http://www.w3.org/2000/svg"
   xmlns="http://www.w3.org/2000/svg"
   id="svg4815"
   version="1.1"
   viewBox="0 0 15.050205 15.049852"
   height="15.049852mm"
   width="15.050205mm">
  <defs
     id="defs4809" />
  <metadata
     id="metadata4812">
    <rdf:RDF>
      <cc:Work
         rdf:about="">
        <dc:format>image/svg+xml</dc:format>
        <dc:type
           rdf:resource="http://purl.org/dc/dcmitype/StillImage" />
        <dc:title></dc:title>
      </cc:Work>
    </rdf:RDF>
  </metadata>
  <g
     transform="translate(2.2374e-7,-281.95015)"
     id="layer1">
    <g
       id="g3748"
       transform="matrix(0.35277777,0,0,-0.35277777,15.050205,289.4749)">
      <path
         d="m 0,0 c 0,-11.781 -9.551,-21.331 -21.332,-21.331 -11.779,0 -21.33,9.55 -21.33,21.331 0,11.78 9.551,21.33 21.33,21.33 C -9.551,21.33 0,11.78 0,0"
         style="fill:#37bff0;fill-opacity:1;fill-rule:evenodd;stroke:none"
         id="path3750" />
    </g>
    <g
       id="g3912"
       transform="matrix(0.35277777,0,0,-0.35277777,12.592475,285.84327)">
      <path
         d="m 0,0 h -14.167 c -1.075,0 -1.955,-0.88 -1.955,-1.954 v -10.06 c 0,-1.073 0.88,-1.953 1.955,-1.953 h 4.232 l -1.33,-6.456 4.318,6.456 H 0 c 1.075,0 1.955,0.88 1.955,1.953 v 10.06 C 1.955,-0.88 1.075,0 0,0"
         style="fill:#ffffff;fill-opacity:1;fill-rule:nonzero;stroke:none"
         id="path3914" />
    </g>
    <g
       id="g3916"
       transform="matrix(0.35277777,0,0,-0.35277777,7.6180962,291.0219)">
      <path
         d="m 0,0 c 0,-0.79 -0.647,-1.437 -1.436,-1.437 h -3.281 v -0.002 c -0.047,0 -0.1,-0.003 -0.15,-0.019 -0.274,-0.083 -0.428,-0.374 -0.344,-0.646 l 0.682,-2.241 -2.581,2.746 c -0.103,0.109 -0.241,0.16 -0.376,0.16 v 0.002 h -7.169 c -0.791,0 -1.435,0.647 -1.435,1.437 v 9.326 c 0,0.792 0.644,1.44 1.435,1.44 H -1.436 C -0.647,10.766 0,10.118 0,9.326 Z m -1.436,11.798 h -13.219 c -1.361,0 -2.471,-1.108 -2.471,-2.472 V 0 c 0,-1.362 1.11,-2.469 2.471,-2.469 h 6.944 l 5.456,-5.806 -1.764,5.806 h 2.583 c 1.36,0 2.471,1.107 2.471,2.469 v 9.326 c 0,1.364 -1.111,2.472 -2.471,2.472"
         style="fill:#ffffff;fill-opacity:1;fill-rule:nonzero;stroke:none"
         id="path3918" />
    </g>
  </g>
</svg>
