<?xml version="1.0" encoding="UTF-8" standalone="no"?>
<svg
   xmlns:dc="http://purl.org/dc/elements/1.1/"
   xmlns:cc="http://creativecommons.org/ns#"
   xmlns:rdf="http://www.w3.org/1999/02/22-rdf-syntax-ns#"
   xmlns:svg="http://www.w3.org/2000/svg"
   xmlns="http://www.w3.org/2000/svg"
   id="svg5065"
   version="1.1"
   viewBox="0 0 15.050205 15.049852"
   height="15.049852mm"
   width="15.050205mm">
  <defs
     id="defs5059" />
  <metadata
     id="metadata5062">
    <rdf:RDF>
      <cc:Work
         rdf:about="">
        <dc:format>image/svg+xml</dc:format>
        <dc:type
           rdf:resource="http://purl.org/dc/dcmitype/StillImage" />
        <dc:title></dc:title>
      </cc:Work>
    </rdf:RDF>
  </metadata>
  <g
     transform="translate(2.2374e-7,-281.95015)"
     id="layer1">
    <g
       id="g3756"
       transform="matrix(0.35277777,0,0,-0.35277777,15.050205,289.4749)">
      <path
         d="m 0,0 c 0,-11.781 -9.551,-21.331 -21.332,-21.331 -11.779,0 -21.33,9.55 -21.33,21.331 0,11.78 9.551,21.33 21.33,21.33 C -9.551,21.33 0,11.78 0,0"
         style="fill:#ee7400;fill-opacity:1;fill-rule:evenodd;stroke:none"
         id="path3758" />
    </g>
    <g
       id="g3908"
       transform="matrix(0.35277777,0,0,-0.35277777,12.112585,291.37347)">
      <path
         d="m 0,0 -0.52,1.508 c -0.056,0.256 -0.117,0.559 -0.185,0.904 0.068,0.086 0.106,0.138 0.106,0.138 l -1.076,6.539 c -0.054,0.844 -0.05,1.574 0.04,2.078 L 2.399,11.749 3.948,0.06 Z m -3.789,0.128 c -1.576,0.374 -3.446,1.574 -5.005,3.209 -0.238,0.251 -0.636,0.26 -0.891,0.021 -0.252,-0.24 -0.258,-0.637 -0.02,-0.889 0.742,-0.782 2.601,-2.541 4.861,-3.336 -0.415,-0.531 -0.882,-0.815 -1.434,-0.862 -1.445,-0.126 -2.96,1.336 -2.975,1.351 -0.015,0.015 -0.035,0.03 -0.052,0.045 l -2.154,1.715 c -0.273,0.22 -0.671,0.175 -0.888,-0.099 -0.213,-0.272 -0.169,-0.666 0.102,-0.886 l 2.135,-1.696 c 0.181,-0.171 1.191,-1.089 2.475,-1.5 -0.046,-0.035 -0.09,-0.075 -0.128,-0.125 -0.256,-0.353 -0.573,-0.548 -0.961,-0.599 -1.01,-0.131 -2.307,0.718 -2.731,1.059 l -2.157,1.719 c -0.272,0.219 -0.669,0.17 -0.886,-0.099 -0.217,-0.272 -0.171,-0.67 0.102,-0.885 l 2.149,-1.713 c 0.035,-0.028 0.398,-0.321 0.938,-0.625 -0.837,-0.659 -2.553,0.075 -2.806,0.191 l -8.775,5.933 0.015,0.059 c 0.004,0.015 0.006,0.024 0.01,0.036 0.313,1.328 1.186,8.365 1.341,9.604 l 3.975,0.165 c -3.077,-3.425 -1.088,-9.368 3.063,-3.397 l 1.998,0.383 c 0,0 5.795,-3.622 8.134,-5.277 C -3.555,3.064 -2.623,2.31 -2.313,1.32 -2.395,1.14 -2.536,0.925 -2.755,0.701 -3.194,0.245 -3.633,0.09 -3.789,0.128 m 8.81,-0.496 -1.69,12.755 C 3.314,12.52 3.243,12.638 3.135,12.723 3.028,12.803 2.893,12.839 2.76,12.818 l -4.868,-0.703 c -0.192,-0.027 -0.349,-0.158 -0.409,-0.342 -0.025,-0.075 -0.047,-0.161 -0.063,-0.25 -2.117,0.777 -9.919,3.414 -13.672,1.436 -0.041,0.012 -0.083,0.017 -0.129,0.017 h -0.021 l -0.429,-0.017 c -0.053,0.017 -0.108,0.027 -0.165,0.023 l -4.832,-0.227 c -0.124,0.104 -0.277,0.18 -0.447,0.21 l -5.281,0.86 c -0.25,0.04 -0.503,-0.021 -0.702,-0.172 -0.205,-0.149 -0.334,-0.374 -0.371,-0.621 L -30.318,0.274 c -0.036,-0.269 0.049,-0.542 0.229,-0.745 0.18,-0.193 0.43,-0.304 0.693,-0.304 h 0.024 l 5.046,0.128 c 0.408,0.009 0.763,0.284 0.871,0.68 l 0.209,0.746 8.466,-5.726 c 0.021,-0.015 0.048,-0.03 0.073,-0.043 0.033,-0.014 0.801,-0.395 1.723,-0.547 0.276,-0.048 0.527,-0.066 0.757,-0.066 1.135,0 1.775,0.497 2.136,1 0.369,-0.117 0.761,-0.192 1.154,-0.192 0.125,0 0.247,0.006 0.368,0.024 0.744,0.093 1.359,0.464 1.822,1.105 0.154,0.206 0.156,0.475 0.038,0.682 0.087,-0.006 0.175,-0.012 0.264,-0.012 0.088,0 0.177,0.003 0.267,0.012 0.961,0.08 1.779,0.577 2.427,1.476 0.085,0.113 0.121,0.248 0.118,0.379 0.578,0.037 1.216,0.368 1.781,0.952 0.244,0.252 0.436,0.512 0.581,0.775 l 0.441,-1.271 c 0.07,-0.204 0.261,-0.339 0.475,-0.339 h 0.008 l 4.874,0.075 c 0.147,0 0.283,0.066 0.376,0.173 0.094,0.108 0.137,0.252 0.118,0.396"
         style="fill:#ffffff;fill-opacity:1;fill-rule:nonzero;stroke:none"
         id="path3910" />
    </g>
  </g>
</svg>
