<?xml version="1.0" encoding="UTF-8" standalone="no"?>
<svg
   xmlns:dc="http://purl.org/dc/elements/1.1/"
   xmlns:cc="http://creativecommons.org/ns#"
   xmlns:rdf="http://www.w3.org/1999/02/22-rdf-syntax-ns#"
   xmlns:svg="http://www.w3.org/2000/svg"
   xmlns="http://www.w3.org/2000/svg"
   id="svg4572"
   version="1.1"
   viewBox="0 0 15.050205 15.049852"
   height="15.049852mm"
   width="15.050205mm">
  <defs
     id="defs4566" />
  <metadata
     id="metadata4569">
    <rdf:RDF>
      <cc:Work
         rdf:about="">
        <dc:format>image/svg+xml</dc:format>
        <dc:type
           rdf:resource="http://purl.org/dc/dcmitype/StillImage" />
        <dc:title></dc:title>
      </cc:Work>
    </rdf:RDF>
  </metadata>
  <g
     transform="translate(2.2374e-7,-281.95015)"
     id="layer1">
    <g
       id="g3740"
       transform="matrix(0.35277777,0,0,-0.35277777,15.050205,289.4749)">
      <path
         d="m 0,0 c 0,-11.781 -9.551,-21.331 -21.332,-21.331 -11.779,0 -21.33,9.55 -21.33,21.331 0,11.78 9.551,21.33 21.33,21.33 C -9.551,21.33 0,11.78 0,0"
         style="fill:#780048;fill-opacity:1;fill-rule:evenodd;stroke:none"
         id="path3742" />
    </g>
    <g
       id="g3996"
       transform="matrix(0.35277777,0,0,-0.35277777,3.0016752,290.82381)">
      <path
         d="m 0,0 c -0.012,0.035 -0.02,0.07 -0.029,0.107 -0.01,0.037 -0.02,0.077 -0.026,0.116 -0.009,0.04 -0.014,0.081 -0.021,0.124 -0.005,0.043 -0.009,0.089 -0.012,0.133 -0.005,0.046 -0.005,0.092 -0.005,0.14 0,0.049 0.003,0.097 0.005,0.146 0.01,0.1 0.022,0.204 0.042,0.309 0.021,0.107 0.052,0.212 0.088,0.321 0.074,0.213 0.181,0.434 0.32,0.639 0.14,0.202 0.31,0.4 0.504,0.567 C 1.06,2.77 1.274,2.919 1.505,3.036 1.734,3.151 1.976,3.243 2.218,3.298 2.46,3.356 2.704,3.385 2.938,3.383 2.997,3.384 3.055,3.38 3.113,3.377 3.169,3.374 3.227,3.368 3.282,3.361 3.338,3.355 3.392,3.346 3.446,3.335 3.501,3.326 3.555,3.316 3.605,3.302 3.71,3.275 3.809,3.247 3.904,3.21 3.997,3.177 4.088,3.138 4.171,3.094 4.255,3.052 4.334,3.008 4.405,2.959 4.48,2.913 4.547,2.867 4.607,2.814 4.729,2.717 4.828,2.618 4.905,2.53 4.923,2.507 4.941,2.487 4.958,2.466 4.975,2.445 4.99,2.424 5.004,2.406 5.032,2.369 5.056,2.335 5.071,2.307 5.091,2.281 5.104,2.256 5.114,2.241 5.122,2.226 5.128,2.218 5.128,2.218 L 5.095,2.062 c 0,0 -0.024,0.002 -0.068,0.008 C 4.983,2.075 4.921,2.083 4.84,2.09 4.801,2.094 4.754,2.099 4.705,2.103 4.657,2.106 4.603,2.107 4.547,2.11 4.492,2.113 4.431,2.113 4.368,2.113 4.336,2.113 4.303,2.114 4.271,2.114 4.236,2.113 4.204,2.112 4.169,2.112 4.134,2.111 4.1,2.111 4.062,2.108 4.027,2.106 3.99,2.103 3.953,2.101 3.879,2.097 3.803,2.087 3.724,2.079 3.645,2.069 3.566,2.054 3.484,2.042 3.403,2.024 3.32,2.012 3.235,1.99 3.068,1.955 2.899,1.9 2.729,1.842 2.559,1.783 2.394,1.708 2.231,1.624 2.068,1.543 1.913,1.446 1.767,1.344 1.621,1.242 1.483,1.129 1.36,1.013 1.235,0.897 1.126,0.774 1.026,0.653 0.98,0.592 0.932,0.532 0.892,0.47 0.848,0.411 0.813,0.35 0.776,0.292 0.741,0.233 0.713,0.173 0.684,0.12 0.652,0.064 0.627,0.01 0.604,-0.039 0.581,-0.09 0.562,-0.139 0.542,-0.185 0.522,-0.229 0.511,-0.271 0.497,-0.307 0.469,-0.381 0.451,-0.446 0.439,-0.487 0.426,-0.53 0.418,-0.553 0.418,-0.553 l -0.152,0.035 c 0,0 -0.005,0.008 -0.017,0.023 C 0.24,-0.481 0.221,-0.459 0.205,-0.433 0.187,-0.406 0.163,-0.372 0.14,-0.334 0.128,-0.314 0.112,-0.295 0.103,-0.27 0.091,-0.245 0.079,-0.218 0.067,-0.19 0.057,-0.162 0.042,-0.131 0.033,-0.1 0.021,-0.067 0.01,-0.032 0,0 m 4.181,-4.491 0.139,0.129 c 0,0 0.056,-0.005 0.149,-0.016 0.094,-0.009 0.219,-0.035 0.38,-0.051 0.082,-0.008 0.165,-0.019 0.255,-0.031 0.043,-0.003 0.093,-0.004 0.14,-0.009 0.048,-0.004 0.097,-0.008 0.146,-0.012 0.197,-0.013 0.408,-0.021 0.627,-0.021 0.106,-0.002 0.217,0.006 0.324,0.005 0.055,0.005 0.112,0.009 0.168,0.011 0.054,0.005 0.108,0.004 0.165,0.011 0.055,0.006 0.108,0.011 0.164,0.014 0.025,0 0.053,0.007 0.082,0.011 0.027,0.002 0.055,0.006 0.083,0.009 0.106,0.008 0.218,0.031 0.322,0.042 0.216,0.037 0.428,0.077 0.634,0.119 0.207,0.05 0.406,0.101 0.604,0.157 0.197,0.057 0.383,0.124 0.571,0.192 0.187,0.067 0.364,0.147 0.547,0.229 0.042,0.022 0.09,0.042 0.137,0.063 0.021,0.013 0.042,0.026 0.066,0.037 0.019,0.012 0.043,0.023 0.066,0.034 0.046,0.022 0.089,0.048 0.135,0.074 0.021,0.013 0.045,0.026 0.064,0.038 0.024,0.013 0.049,0.023 0.071,0.039 0.042,0.027 0.083,0.057 0.13,0.084 0.022,0.013 0.046,0.026 0.067,0.041 0.021,0.017 0.042,0.03 0.062,0.045 0.044,0.031 0.086,0.062 0.131,0.091 0.043,0.03 0.08,0.065 0.124,0.096 0.042,0.033 0.084,0.065 0.126,0.097 0.039,0.034 0.077,0.069 0.117,0.101 0.039,0.034 0.079,0.068 0.118,0.101 0.037,0.035 0.074,0.07 0.106,0.104 0.037,0.033 0.072,0.067 0.107,0.099 0.035,0.033 0.067,0.064 0.1,0.095 0.063,0.061 0.118,0.12 0.179,0.176 0.027,0.028 0.056,0.053 0.079,0.085 0.023,0.03 0.049,0.056 0.069,0.083 0.044,0.052 0.084,0.094 0.116,0.129 0.065,0.071 0.104,0.108 0.104,0.108 l 0.189,-0.02 c 0,0 -0.003,-0.04 -0.007,-0.117 C 12.135,-2.058 12.132,-2.104 12.13,-2.16 12.125,-2.215 12.125,-2.278 12.111,-2.352 12.102,-2.425 12.091,-2.506 12.076,-2.595 12.073,-2.617 12.069,-2.64 12.067,-2.662 12.062,-2.685 12.056,-2.708 12.05,-2.732 12.042,-2.778 12.03,-2.827 12.019,-2.876 12.007,-2.927 11.995,-2.978 11.983,-3.031 11.967,-3.083 11.951,-3.137 11.932,-3.191 11.916,-3.247 11.897,-3.303 11.879,-3.36 11.855,-3.417 11.833,-3.474 11.808,-3.533 11.782,-3.591 11.761,-3.652 11.73,-3.712 11.701,-3.77 11.67,-3.831 11.638,-3.891 11.621,-3.922 11.607,-3.953 11.591,-3.983 11.573,-4.015 11.554,-4.044 11.536,-4.074 11.498,-4.135 11.459,-4.195 11.422,-4.257 11.382,-4.319 11.333,-4.377 11.292,-4.437 11.269,-4.468 11.245,-4.498 11.223,-4.528 11.201,-4.56 11.174,-4.587 11.15,-4.616 11.099,-4.674 11.048,-4.733 10.994,-4.792 10.939,-4.846 10.881,-4.9 10.823,-4.956 10.795,-4.984 10.768,-5.013 10.734,-5.039 10.705,-5.064 10.672,-5.089 10.642,-5.117 10.61,-5.142 10.579,-5.167 10.547,-5.193 10.531,-5.206 10.514,-5.219 10.5,-5.232 L 10.449,-5.267 C 10.382,-5.314 10.313,-5.362 10.245,-5.41 10.173,-5.454 10.101,-5.495 10.029,-5.537 9.734,-5.7 9.421,-5.837 9.094,-5.933 8.767,-6.025 8.431,-6.083 8.096,-6.108 7.761,-6.129 7.432,-6.115 7.116,-6.079 L 6.885,-6.04 c -0.04,0.007 -0.077,0.011 -0.116,0.02 -0.038,0.01 -0.076,0.019 -0.113,0.029 -0.073,0.019 -0.147,0.033 -0.217,0.057 -0.073,0.022 -0.141,0.044 -0.211,0.067 -0.07,0.02 -0.135,0.049 -0.203,0.074 -0.064,0.026 -0.129,0.051 -0.192,0.078 -0.061,0.029 -0.123,0.058 -0.182,0.087 -0.06,0.029 -0.118,0.054 -0.171,0.088 -0.055,0.031 -0.11,0.062 -0.163,0.092 -0.025,0.015 -0.05,0.03 -0.077,0.044 -0.025,0.016 -0.048,0.032 -0.073,0.05 -0.047,0.031 -0.093,0.064 -0.14,0.094 -0.021,0.016 -0.044,0.031 -0.064,0.046 -0.022,0.015 -0.042,0.031 -0.064,0.048 -0.078,0.064 -0.153,0.123 -0.222,0.178 -0.065,0.061 -0.125,0.115 -0.179,0.166 -0.027,0.024 -0.053,0.048 -0.076,0.07 -0.021,0.024 -0.042,0.047 -0.063,0.067 -0.037,0.042 -0.07,0.078 -0.097,0.106 -0.051,0.058 -0.081,0.088 -0.081,0.088 m 6.368,8.648 C 10.37,4.128 10.191,4.092 10.02,4.04 9.849,3.986 9.679,3.932 9.521,3.862 9.442,3.831 9.368,3.79 9.291,3.758 9.217,3.72 9.146,3.685 9.076,3.646 9.006,3.607 8.938,3.571 8.876,3.53 8.846,3.51 8.813,3.491 8.783,3.471 8.753,3.453 8.726,3.432 8.694,3.412 8.667,3.392 8.639,3.374 8.611,3.354 8.586,3.334 8.561,3.315 8.534,3.296 8.481,3.26 8.435,3.224 8.391,3.188 8.346,3.153 8.303,3.121 8.268,3.089 8.229,3.057 8.196,3.027 8.166,3 8.104,2.946 8.057,2.902 8.024,2.874 7.993,2.843 7.976,2.828 7.976,2.828 L 7.859,2.935 c 0,0 -0.002,0.009 -0.002,0.027 C 7.854,2.979 7.85,3.005 7.85,3.038 7.848,3.072 7.846,3.113 7.848,3.159 V 3.236 C 7.85,3.261 7.852,3.288 7.854,3.318 7.863,3.434 7.887,3.572 7.929,3.723 7.947,3.801 7.974,3.877 8.005,3.958 8.036,4.04 8.072,4.122 8.117,4.206 8.158,4.289 8.208,4.374 8.265,4.457 8.318,4.542 8.384,4.623 8.451,4.706 8.485,4.749 8.522,4.787 8.561,4.827 8.598,4.866 8.637,4.907 8.679,4.945 8.72,4.982 8.762,5.02 8.807,5.056 8.85,5.094 8.896,5.13 8.942,5.163 c 0.189,0.14 0.405,0.26 0.634,0.356 0.231,0.097 0.479,0.165 0.732,0.206 0.255,0.04 0.515,0.046 0.773,0.025 0.254,-0.02 0.506,-0.081 0.74,-0.165 0.233,-0.081 0.448,-0.198 0.634,-0.327 0.093,-0.066 0.181,-0.134 0.26,-0.209 0.079,-0.07 0.15,-0.148 0.213,-0.224 0.032,-0.038 0.063,-0.075 0.091,-0.116 0.027,-0.04 0.055,-0.076 0.079,-0.115 0.025,-0.037 0.048,-0.076 0.067,-0.115 0.021,-0.038 0.041,-0.074 0.059,-0.112 0.017,-0.036 0.031,-0.075 0.047,-0.109 0.015,-0.035 0.026,-0.07 0.038,-0.104 0.011,-0.033 0.023,-0.067 0.033,-0.099 0.012,-0.032 0.017,-0.065 0.025,-0.095 0.006,-0.029 0.012,-0.058 0.018,-0.084 0.008,-0.027 0.006,-0.051 0.008,-0.073 0.003,-0.045 0.005,-0.086 0.005,-0.118 0.003,-0.033 0,-0.06 0,-0.078 V 3.58 L 13.295,3.46 c 0,0 -0.019,0.015 -0.054,0.041 -0.035,0.027 -0.088,0.069 -0.153,0.112 -0.032,0.022 -0.067,0.048 -0.109,0.074 -0.041,0.024 -0.086,0.052 -0.134,0.08 -0.049,0.027 -0.102,0.056 -0.158,0.082 -0.056,0.026 -0.114,0.058 -0.176,0.084 -0.064,0.026 -0.128,0.054 -0.2,0.078 C 12.243,4.036 12.17,4.057 12.095,4.08 11.943,4.119 11.782,4.153 11.614,4.174 11.445,4.195 11.269,4.206 11.089,4.204 10.911,4.2 10.73,4.187 10.549,4.157 M -3.501,1.943 c 2.538,-7.814 8.652,-12.83 13.652,-11.205 5.004,1.627 7.001,9.277 4.462,17.091 -0.483,1.487 -1.095,2.873 -1.805,4.132 C 10.69,9.877 7.97,8.192 4.814,7.166 1.658,6.14 -1.531,5.906 -4.47,6.347 -4.305,4.911 -3.984,3.431 -3.501,1.943"
         style="fill:#ffffff;fill-opacity:1;fill-rule:nonzero;stroke:none"
         id="path3998" />
    </g>
    <g
       id="g4000"
       transform="matrix(0.35277777,0,0,-0.35277777,12.179405,288.17301)">
      <path
         d="m 0,0 c 0,-0.034 0,-0.075 -0.002,-0.121 -0.003,-0.023 0,-0.048 -0.008,-0.075 -0.004,-0.027 -0.011,-0.056 -0.015,-0.086 -0.007,-0.03 -0.015,-0.064 -0.024,-0.096 -0.009,-0.034 -0.02,-0.069 -0.03,-0.102 -0.012,-0.036 -0.024,-0.071 -0.037,-0.107 -0.014,-0.037 -0.028,-0.075 -0.046,-0.113 -0.017,-0.038 -0.035,-0.075 -0.057,-0.114 -0.017,-0.04 -0.041,-0.081 -0.064,-0.119 -0.023,-0.041 -0.052,-0.079 -0.079,-0.12 -0.026,-0.041 -0.056,-0.08 -0.089,-0.119 -0.062,-0.079 -0.134,-0.161 -0.213,-0.233 -0.076,-0.078 -0.165,-0.149 -0.258,-0.219 -0.187,-0.137 -0.403,-0.26 -0.638,-0.349 -0.234,-0.09 -0.49,-0.158 -0.75,-0.185 -0.256,-0.028 -0.524,-0.028 -0.784,0.008 -0.26,0.036 -0.512,0.097 -0.75,0.191 -0.236,0.092 -0.457,0.208 -0.652,0.346 -0.049,0.032 -0.095,0.069 -0.142,0.105 -0.046,0.037 -0.09,0.075 -0.132,0.112 -0.043,0.037 -0.083,0.076 -0.122,0.117 -0.04,0.039 -0.08,0.076 -0.114,0.12 -0.072,0.082 -0.14,0.163 -0.197,0.248 -0.059,0.083 -0.112,0.168 -0.155,0.253 -0.047,0.084 -0.089,0.166 -0.122,0.248 -0.032,0.082 -0.062,0.16 -0.083,0.238 -0.047,0.152 -0.073,0.292 -0.083,0.41 -0.005,0.03 -0.007,0.058 -0.01,0.085 -0.002,0.026 -0.002,0.052 -0.002,0.076 -0.002,0.048 -0.002,0.089 0,0.123 0,0.033 0.002,0.061 0.005,0.078 0,0.018 0.002,0.028 0.002,0.028 l 0.116,0.111 c 0,0 0.015,-0.016 0.051,-0.045 C -5.451,0.665 -5.403,0.621 -5.339,0.569 -5.308,0.542 -5.273,0.513 -5.234,0.48 -5.196,0.449 -5.152,0.418 -5.106,0.383 -5.06,0.347 -5.011,0.312 -4.957,0.276 -4.932,0.258 -4.903,0.239 -4.876,0.219 -4.849,0.201 -4.818,0.182 -4.791,0.162 -4.76,0.144 -4.73,0.123 -4.7,0.104 c 0.033,-0.019 0.064,-0.038 0.097,-0.057 0.064,-0.04 0.135,-0.075 0.206,-0.113 0.071,-0.038 0.145,-0.072 0.222,-0.108 0.076,-0.033 0.155,-0.071 0.237,-0.101 0.162,-0.068 0.334,-0.12 0.509,-0.168 0.178,-0.051 0.361,-0.083 0.544,-0.107 0.183,-0.027 0.368,-0.035 0.55,-0.034 0.181,0.001 0.359,0.017 0.531,0.042 0.173,0.026 0.335,0.065 0.489,0.109 0.074,0.023 0.147,0.047 0.217,0.074 0.07,0.026 0.137,0.056 0.2,0.084 0.065,0.026 0.12,0.061 0.178,0.088 0.056,0.03 0.11,0.061 0.158,0.088 0.049,0.031 0.093,0.059 0.134,0.086 0.042,0.026 0.077,0.054 0.111,0.077 0.064,0.046 0.118,0.09 0.152,0.118 0.035,0.028 0.053,0.043 0.053,0.043 l 0.11,-0.12 V 0.078 C 0,0.06 0,0.032 0,0 m -5.93,5.184 c -3.235,0.966 -6.041,2.614 -8.247,4.682 -0.691,-1.297 -1.28,-2.721 -1.735,-4.246 -0.32,-1.071 -0.557,-2.138 -0.718,-3.184 1.351,0.858 2.566,1.85 3.621,2.94 0.601,-1.008 1.14,-2.103 1.602,-3.266 0.037,-0.02 0.074,-0.039 0.113,-0.056 0.168,-0.081 0.339,-0.153 0.514,-0.209 0.174,-0.055 0.345,-0.107 0.516,-0.139 0.087,-0.02 0.173,-0.03 0.254,-0.046 0.083,-0.012 0.167,-0.025 0.246,-0.032 0.079,-0.007 0.158,-0.016 0.235,-0.018 0.037,-0.002 0.074,-0.003 0.11,-0.006 0.037,0 0.072,0 0.107,0 0.035,0 0.07,0 0.105,0 0.032,0 0.067,0.002 0.098,0.003 0.064,0.001 0.125,0.003 0.182,0.008 0.059,0.005 0.113,0.006 0.16,0.012 0.051,0.005 0.096,0.01 0.138,0.015 0.081,0.009 0.146,0.02 0.191,0.025 0.043,0.007 0.067,0.01 0.067,0.01 L -8.334,1.52 c 0,0 -0.006,-0.008 -0.014,-0.024 C -8.355,1.48 -8.369,1.456 -8.388,1.428 -8.404,1.399 -8.427,1.363 -8.456,1.325 -8.47,1.305 -8.483,1.285 -8.499,1.263 -8.516,1.241 -8.534,1.221 -8.553,1.198 -8.629,1.104 -8.727,1.003 -8.848,0.9 -8.907,0.846 -8.976,0.797 -9.049,0.748 -9.121,0.697 -9.2,0.65 -9.283,0.605 -9.37,0.559 -9.46,0.519 -9.555,0.48 -9.651,0.441 -9.75,0.41 -9.854,0.381 -9.907,0.364 -9.961,0.354 -10.018,0.342 -10.07,0.331 -10.126,0.32 -10.182,0.312 c -0.058,-0.007 -0.116,-0.015 -0.174,-0.02 -0.058,-0.005 -0.117,-0.01 -0.176,-0.01 -0.076,-0.003 -0.156,-10e-4 -0.235,0.003 0.579,-1.883 0.891,-3.748 0.966,-5.515 0.248,-0.027 0.496,-0.07 0.742,-0.132 0.335,-0.09 0.658,-0.222 0.961,-0.38 0.075,-0.042 0.149,-0.082 0.223,-0.124 0.069,-0.048 0.14,-0.094 0.209,-0.14 l 0.053,-0.036 c 0.016,-0.012 0.033,-0.025 0.05,-0.038 0.032,-0.025 0.066,-0.05 0.099,-0.076 0.032,-0.026 0.066,-0.052 0.097,-0.077 0.033,-0.024 0.061,-0.053 0.091,-0.081 0.06,-0.055 0.118,-0.109 0.178,-0.164 0.054,-0.058 0.11,-0.116 0.161,-0.173 0.025,-0.03 0.056,-0.057 0.079,-0.088 0.023,-0.032 0.046,-0.06 0.07,-0.092 0.046,-0.06 0.095,-0.118 0.136,-0.18 0.042,-0.061 0.081,-0.123 0.121,-0.183 0.018,-0.03 0.04,-0.06 0.058,-0.09 0.016,-0.032 0.036,-0.063 0.051,-0.093 0.032,-0.062 0.066,-0.122 0.097,-0.18 0.033,-0.06 0.056,-0.122 0.084,-0.181 0.026,-0.059 0.052,-0.116 0.077,-0.173 0.02,-0.058 0.039,-0.115 0.058,-0.171 0.021,-0.055 0.037,-0.11 0.055,-0.162 0.015,-0.053 0.029,-0.106 0.039,-0.157 0.015,-0.049 0.026,-0.099 0.037,-0.146 0.008,-0.024 0.012,-0.046 0.02,-0.07 0.002,-0.023 0.006,-0.046 0.012,-0.068 0.013,-0.089 0.027,-0.172 0.041,-0.246 0.014,-0.075 0.016,-0.138 0.02,-0.195 0.006,-0.057 0.01,-0.106 0.012,-0.144 0.008,-0.077 0.012,-0.119 0.012,-0.119 l -0.193,-0.025 c 0,0 -0.04,0.038 -0.109,0.108 -0.031,0.035 -0.074,0.078 -0.12,0.129 -0.022,0.026 -0.047,0.053 -0.073,0.083 -0.025,0.031 -0.053,0.057 -0.083,0.084 -0.06,0.056 -0.12,0.115 -0.185,0.174 -0.033,0.03 -0.068,0.062 -0.103,0.094 -0.037,0.033 -0.074,0.066 -0.111,0.1 -0.037,0.033 -0.075,0.068 -0.112,0.102 -0.041,0.033 -0.081,0.066 -0.122,0.099 -0.042,0.033 -0.081,0.067 -0.121,0.101 -0.044,0.031 -0.086,0.062 -0.13,0.095 -0.047,0.031 -0.084,0.066 -0.13,0.095 -0.047,0.029 -0.09,0.059 -0.135,0.089 -0.02,0.015 -0.044,0.029 -0.065,0.045 -0.021,0.015 -0.046,0.027 -0.07,0.04 -0.046,0.027 -0.09,0.055 -0.134,0.082 -0.021,0.016 -0.048,0.025 -0.07,0.038 -0.022,0.012 -0.046,0.025 -0.069,0.037 -0.047,0.025 -0.089,0.051 -0.138,0.072 -0.022,0.012 -0.046,0.021 -0.069,0.033 -0.024,0.012 -0.047,0.024 -0.067,0.035 -0.049,0.021 -0.098,0.04 -0.142,0.062 -0.188,0.079 -0.368,0.157 -0.561,0.22 -0.193,0.064 -0.385,0.127 -0.585,0.18 -0.087,0.023 -0.174,0.044 -0.262,0.066 -0.102,-1.669 -0.437,-3.213 -0.98,-4.548 C -5.705,-13.073 0.287,-7.851 2.654,0.072 3.109,1.597 3.397,3.111 3.53,4.575 0.555,4.056 -2.694,4.217 -5.93,5.184"
         style="fill:#ffffff;fill-opacity:1;fill-rule:nonzero;stroke:none"
         id="path4002" />
    </g>
  </g>
</svg>
