<?xml version="1.0" encoding="UTF-8" standalone="no"?>
<svg
   xmlns:dc="http://purl.org/dc/elements/1.1/"
   xmlns:cc="http://creativecommons.org/ns#"
   xmlns:rdf="http://www.w3.org/1999/02/22-rdf-syntax-ns#"
   xmlns:svg="http://www.w3.org/2000/svg"
   xmlns="http://www.w3.org/2000/svg"
   width="46.642639mm"
   height="4.1490197mm"
   viewBox="0 0 46.642639 4.1490197"
   version="1.1"
   id="svg8">
  <metadata
     id="metadata4298">
    <rdf:RDF>
      <cc:Work
         rdf:about="">
        <dc:format>image/svg+xml</dc:format>
        <dc:type
           rdf:resource="http://purl.org/dc/dcmitype/StillImage" />
        <dc:title></dc:title>
      </cc:Work>
    </rdf:RDF>
  </metadata>
  <defs
     id="defs4296" />
  <g
     id="text4302"
     style="font-size:10.58333302px;line-height:6.61458302px;font-family:Stentiga;-inkscape-font-specification:Stentiga;text-align:center;letter-spacing:0px;word-spacing:0px;text-anchor:middle;stroke-width:0.26458332"
     aria-label="codeschluss•">
    <path
       id="path840"
       style="font-style:normal;font-variant:normal;font-weight:normal;font-stretch:normal;font-size:6.70277786px;font-family:'TeX Gyre Cursor';-inkscape-font-specification:'TeX Gyre Cursor';text-align:center;text-anchor:middle;stroke-width:0.26458332"
       d="M 2.5939759,1.4612057 C 2.3258648,1.2534196 1.9706176,1.1394724 1.5751537,1.1394724 0.65687312,1.1394724 8.9156628e-7,1.7762363 8.9156628e-7,2.6677058 8.9156628e-7,3.5323641 0.64346757,4.1490197 1.5483426,4.1490197 c 0.4490861,0 0.8914694,-0.1273528 1.2467167,-0.3686528 0.2010833,-0.1340556 0.301625,-0.2547056 0.301625,-0.3485445 0,-0.087136 -0.073731,-0.1608666 -0.1608667,-0.1608666 -0.053622,0 -0.087136,0.013406 -0.1474611,0.07373 C 2.4532176,3.6530141 2.0443481,3.807178 1.5617481,3.807178 c -0.71049442,0 -1.21320276,-0.4691944 -1.21320276,-1.146175 0,-0.7037917 0.48930278,-1.1796889 1.20650006,-1.1796889 0.5496277,0 0.9987139,0.2547055 1.0389305,0.5898444 0.013406,0.1340556 0.067028,0.1876778 0.1675695,0.1876778 0.1139472,0 0.1742722,-0.07373 0.1742722,-0.2077861 v -0.60325 c 0,-0.1407583 -0.060325,-0.2144889 -0.1742722,-0.2144889 -0.1139473,0 -0.1675695,0.073731 -0.1675695,0.2144889 z" />
    <path
       id="path842"
       style="font-style:normal;font-variant:normal;font-weight:normal;font-stretch:normal;font-size:6.70277786px;font-family:'TeX Gyre Cursor';-inkscape-font-specification:'TeX Gyre Cursor';text-align:center;text-anchor:middle;stroke-width:0.26458332"
       d="m 5.5271741,1.1394724 c -0.8981722,0 -1.5885583,0.6568722 -1.5885583,1.508125 0,0.8311445 0.6970889,1.5014223 1.56845,1.5014223 0.8713611,0 1.5617472,-0.663575 1.5617472,-1.508125 0,-0.8244417 -0.6903861,-1.5014223 -1.5416389,-1.5014223 z m -0.040217,0.3418417 c 0.6970889,0 1.2333111,0.5027083 1.2333111,1.1662833 0,0.6434667 -0.5362222,1.1595806 -1.2132028,1.1595806 -0.6769806,0 -1.2199056,-0.5161139 -1.2199056,-1.1662833 0,-0.6367639 0.5362222,-1.1595806 1.1997973,-1.1595806 z" />
    <path
       id="path844"
       style="font-style:normal;font-variant:normal;font-weight:normal;font-stretch:normal;font-size:6.70277786px;font-family:'TeX Gyre Cursor';-inkscape-font-specification:'TeX Gyre Cursor';text-align:center;text-anchor:middle;stroke-width:0.26458332"
       d="M 10.913589,1.7547607e-7 H 10.236608 C 10.09585,1.7547607e-7 10.02212,0.06032518 10.02212,0.16756962 c 0,0.11394723 0.07373,0.17427223 0.214488,0.17427223 h 0.328437 V 1.7494252 C 10.26342,1.3472585 9.8612529,1.1394724 9.3853557,1.1394724 c -0.8244417,0 -1.4880167,0.6702778 -1.4880167,1.5014223 0,0.8311444 0.663575,1.508125 1.4813139,1.508125 0.4758972,0 0.8914691,-0.2144889 1.1863921,-0.6099528 v 0.5027083 h 0.67698 c 0.140758,0 0.214489,-0.060325 0.214489,-0.1742722 0,-0.1072444 -0.07373,-0.1675694 -0.214489,-0.1675694 H 10.913589 Z M 9.3920584,1.4813141 c 0.6635746,0 1.1729866,0.5027083 1.1729866,1.1662833 0,0.6434667 -0.516114,1.1595806 -1.159581,1.1595806 -0.6501694,0 -1.1595806,-0.5161139 -1.1595806,-1.1662833 0,-0.6434667 0.5094112,-1.1595806 1.146175,-1.1595806 z" />
    <path
       id="path846"
       style="font-style:normal;font-variant:normal;font-weight:normal;font-stretch:normal;font-size:6.70277786px;font-family:'TeX Gyre Cursor';-inkscape-font-specification:'TeX Gyre Cursor';text-align:center;text-anchor:middle;stroke-width:0.26458332"
       d="m 15.053287,2.7347335 v -0.053622 -0.046919 c 0,-0.8579556 -0.670278,-1.4947195 -1.56845,-1.4947195 -0.884767,0 -1.56845,0.6300611 -1.56845,1.4410973 0,0.8847666 0.730603,1.56845 1.662289,1.56845 0.650169,0 1.4478,-0.3217334 1.4478,-0.5764389 0,-0.093839 -0.07373,-0.1675695 -0.16757,-0.1675695 -0.04022,0 -0.06703,0.013406 -0.12065,0.053622 -0.268111,0.2010833 -0.750711,0.3485444 -1.152878,0.3485444 -0.697088,0 -1.219905,-0.4289778 -1.313744,-1.0724445 z M 12.271634,2.3928919 c 0.113947,-0.5496278 0.596547,-0.9115778 1.213203,-0.9115778 0.609953,0 1.099255,0.3686528 1.2065,0.9115778 z" />
    <path
       id="path848"
       style="font-style:normal;font-variant:normal;font-weight:normal;font-stretch:normal;font-size:6.70277786px;font-family:'TeX Gyre Cursor';-inkscape-font-specification:'TeX Gyre Cursor';text-align:center;text-anchor:middle;stroke-width:0.26458332"
       d="m 16.552091,3.2508474 c 0,-0.1072444 -0.07373,-0.180975 -0.174272,-0.180975 -0.113947,0 -0.174272,0.073731 -0.174272,0.2144889 v 0.542925 c 0,0.1407584 0.06032,0.2144889 0.174272,0.2144889 0.107244,0 0.167569,-0.07373 0.167569,-0.2077861 0.254706,0.2077861 0.609953,0.3150306 1.018822,0.3150306 0.790928,0 1.353962,-0.3753556 1.353962,-0.904875 0,-0.2413 -0.134056,-0.4758973 -0.348545,-0.6166556 C 18.348435,2.480028 18.100433,2.4062974 17.68486,2.3660808 17.095016,2.299053 17.061502,2.2923502 16.914041,2.2052141 16.793391,2.1314835 16.71966,2.0309419 16.71966,1.937103 c 0,-0.2614084 0.355248,-0.4557889 0.837848,-0.4557889 0.489302,0 0.824441,0.180975 0.857955,0.4557889 0.01341,0.12065 0.06703,0.180975 0.16757,0.180975 0.113947,0 0.174272,-0.073731 0.174272,-0.2144889 V 1.4478002 c 0,-0.1407583 -0.06032,-0.2144889 -0.16757,-0.2144889 -0.09384,0 -0.160866,0.067028 -0.174272,0.1675694 -0.227894,-0.1742722 -0.529519,-0.2614083 -0.891469,-0.2614083 -0.676981,0 -1.179689,0.3284361 -1.179689,0.7775222 0,0.2211917 0.12065,0.4289778 0.321733,0.5496278 0.194381,0.12065 0.388761,0.1675695 0.884767,0.2144889 0.368653,0.040217 0.542925,0.080433 0.717197,0.180975 0.16757,0.087136 0.274814,0.2345972 0.274814,0.3753556 0,0.3284361 -0.422275,0.5697361 -0.992011,0.5697361 -0.549628,0 -0.998714,-0.2278944 -0.998714,-0.5094111 z" />
    <path
       id="path850"
       style="font-style:normal;font-variant:normal;font-weight:normal;font-stretch:normal;font-size:6.70277786px;font-family:'TeX Gyre Cursor';-inkscape-font-specification:'TeX Gyre Cursor';text-align:center;text-anchor:middle;stroke-width:0.26458332"
       d="M 22.689217,1.4612057 C 22.421106,1.2534196 22.065859,1.1394724 21.670395,1.1394724 c -0.91828,0 -1.575153,0.6367639 -1.575153,1.5282334 0,0.8646583 0.643467,1.4813139 1.548342,1.4813139 0.449086,0 0.89147,-0.1273528 1.246717,-0.3686528 0.201083,-0.1340556 0.301625,-0.2547056 0.301625,-0.3485445 0,-0.087136 -0.07373,-0.1608666 -0.160867,-0.1608666 -0.05362,0 -0.08714,0.013406 -0.147461,0.07373 -0.335139,0.3083278 -0.744008,0.4624917 -1.226608,0.4624917 -0.710495,0 -1.213203,-0.4691944 -1.213203,-1.146175 0,-0.7037917 0.489303,-1.1796889 1.2065,-1.1796889 0.549628,0 0.998714,0.2547055 1.03893,0.5898444 0.01341,0.1340556 0.06703,0.1876778 0.16757,0.1876778 0.113947,0 0.174272,-0.07373 0.174272,-0.2077861 v -0.60325 c 0,-0.1407583 -0.06032,-0.2144889 -0.174272,-0.2144889 -0.113947,0 -0.16757,0.073731 -0.16757,0.2144889 z" />
    <path
       id="path852"
       style="font-style:normal;font-variant:normal;font-weight:normal;font-stretch:normal;font-size:6.70277786px;font-family:'TeX Gyre Cursor';-inkscape-font-specification:'TeX Gyre Cursor';text-align:center;text-anchor:middle;stroke-width:0.26458332"
       d="m 24.730945,1.7547607e-7 h -0.676981 c -0.140758,0 -0.214489,0.0603250045239 -0.214489,0.16756944452393 0,0.11394723 0.07373,0.17427223 0.214489,0.17427223 H 24.3824 V 3.6999336 h -0.268111 c -0.147461,0 -0.221191,0.060325 -0.221191,0.1675694 0,0.1139472 0.08043,0.1742722 0.221191,0.1742722 h 0.884767 c 0.140758,0 0.221192,-0.060325 0.221192,-0.1742722 0,-0.1072444 -0.07373,-0.1675694 -0.221192,-0.1675694 H 24.730945 V 2.0711585 c 0.180975,-0.2010833 0.294922,-0.3284361 0.335139,-0.36195 0.19438,-0.1608666 0.375355,-0.2278944 0.630061,-0.2278944 0.261408,0 0.395464,0.040217 0.542925,0.1608667 0.160866,0.1273527 0.2413,0.2815166 0.2413,0.4691944 v 1.5885584 h -0.268111 c -0.140759,0 -0.214489,0.060325 -0.214489,0.1675694 0,0.1139472 0.07373,0.1742722 0.214489,0.1742722 h 0.884766 c 0.140759,0 0.221192,-0.060325 0.221192,-0.1742722 0,-0.1072444 -0.07373,-0.1675694 -0.221192,-0.1675694 H 26.828914 V 2.0912669 c 0,-0.5496278 -0.462491,-0.9517945 -1.099255,-0.9517945 -0.402167,0 -0.676981,0.1340556 -0.998714,0.4893028 z" />
    <path
       id="path854"
       style="font-style:normal;font-variant:normal;font-weight:normal;font-stretch:normal;font-size:6.70277786px;font-family:'TeX Gyre Cursor';-inkscape-font-specification:'TeX Gyre Cursor';text-align:center;text-anchor:middle;stroke-width:0.26458332"
       d="M 29.788924,1.7547607e-7 H 28.696371 C 28.54891,1.7547607e-7 28.47518,0.06032518 28.47518,0.16756962 c 0,0.11394723 0.07373,0.17427223 0.221191,0.17427223 H 29.44038 V 3.6999336 h -1.038931 c -0.140758,0 -0.214489,0.060325 -0.214489,0.1675694 0,0.1139472 0.07373,0.1742722 0.214489,0.1742722 h 2.426406 c 0.140758,0 0.221191,-0.060325 0.221191,-0.1742722 0,-0.1072444 -0.07373,-0.1675694 -0.221191,-0.1675694 h -1.038931 z" />
    <path
       id="path856"
       style="font-style:normal;font-variant:normal;font-weight:normal;font-stretch:normal;font-size:6.70277786px;font-family:'TeX Gyre Cursor';-inkscape-font-specification:'TeX Gyre Cursor';text-align:center;text-anchor:middle;stroke-width:0.26458332"
       d="m 34.531873,4.0417752 h 0.542925 c 0.140758,0 0.214489,-0.060325 0.214489,-0.1742722 0,-0.1072444 -0.07373,-0.1675694 -0.214489,-0.1675694 H 34.880417 V 1.2333113 h -0.811036 c -0.154164,0 -0.221192,0.053622 -0.221192,0.1675694 0,0.1139473 0.07373,0.1742723 0.221192,0.1742723 h 0.462492 v 1.6622889 c -0.36195,0.3820583 -0.750711,0.5697361 -1.186392,0.5697361 -0.321733,0 -0.576439,-0.2413 -0.576439,-0.5563306 V 1.2333113 h -0.67698 c -0.147462,0 -0.214489,0.053622 -0.214489,0.1675694 0,0.1139473 0.07373,0.1742723 0.214489,0.1742723 h 0.328436 v 1.6756944 c 0,0.542925 0.375355,0.8981723 0.931686,0.8981723 0.428978,0 0.811036,-0.1608667 1.179689,-0.4960056 z" />
    <path
       id="path858"
       style="font-style:normal;font-variant:normal;font-weight:normal;font-stretch:normal;font-size:6.70277786px;font-family:'TeX Gyre Cursor';-inkscape-font-specification:'TeX Gyre Cursor';text-align:center;text-anchor:middle;stroke-width:0.26458332"
       d="m 36.647331,3.2508474 c 0,-0.1072444 -0.07373,-0.180975 -0.174273,-0.180975 -0.113947,0 -0.174272,0.073731 -0.174272,0.2144889 v 0.542925 c 0,0.1407584 0.06032,0.2144889 0.174272,0.2144889 0.107245,0 0.16757,-0.07373 0.16757,-0.2077861 0.254705,0.2077861 0.609953,0.3150306 1.018822,0.3150306 0.790928,0 1.353961,-0.3753556 1.353961,-0.904875 0,-0.2413 -0.134055,-0.4758973 -0.348544,-0.6166556 C 38.443675,2.480028 38.195672,2.4062974 37.7801,2.3660808 37.190256,2.299053 37.156742,2.2923502 37.009281,2.2052141 36.888631,2.1314835 36.8149,2.0309419 36.8149,1.937103 c 0,-0.2614084 0.355247,-0.4557889 0.837847,-0.4557889 0.489303,0 0.824442,0.180975 0.857956,0.4557889 0.0134,0.12065 0.06703,0.180975 0.167569,0.180975 0.113948,0 0.174273,-0.073731 0.174273,-0.2144889 V 1.4478002 c 0,-0.1407583 -0.06032,-0.2144889 -0.16757,-0.2144889 -0.09384,0 -0.160867,0.067028 -0.174272,0.1675694 -0.227895,-0.1742722 -0.52952,-0.2614083 -0.89147,-0.2614083 -0.67698,0 -1.179688,0.3284361 -1.179688,0.7775222 0,0.2211917 0.12065,0.4289778 0.321733,0.5496278 0.19438,0.12065 0.388761,0.1675695 0.884767,0.2144889 0.368652,0.040217 0.542925,0.080433 0.717197,0.180975 0.167569,0.087136 0.274814,0.2345972 0.274814,0.3753556 0,0.3284361 -0.422275,0.5697361 -0.992011,0.5697361 -0.549628,0 -0.998714,-0.2278944 -0.998714,-0.5094111 z" />
    <path
       id="path860"
       style="font-style:normal;font-variant:normal;font-weight:normal;font-stretch:normal;font-size:6.70277786px;font-family:'TeX Gyre Cursor';-inkscape-font-specification:'TeX Gyre Cursor';text-align:center;text-anchor:middle;stroke-width:0.26458332"
       d="m 40.666381,3.2508474 c 0,-0.1072444 -0.07373,-0.180975 -0.174272,-0.180975 -0.113947,0 -0.174272,0.073731 -0.174272,0.2144889 v 0.542925 c 0,0.1407584 0.06033,0.2144889 0.174272,0.2144889 0.107244,0 0.167569,-0.07373 0.167569,-0.2077861 0.254706,0.2077861 0.609953,0.3150306 1.018823,0.3150306 0.790927,0 1.353961,-0.3753556 1.353961,-0.904875 0,-0.2413 -0.134056,-0.4758973 -0.348545,-0.6166556 C 42.462726,2.480028 42.214723,2.4062974 41.799151,2.3660808 41.209306,2.299053 41.175792,2.2923502 41.028331,2.2052141 c -0.12065,-0.073731 -0.19438,-0.1742722 -0.19438,-0.2681111 0,-0.2614084 0.355247,-0.4557889 0.837847,-0.4557889 0.489303,0 0.824442,0.180975 0.857955,0.4557889 0.01341,0.12065 0.06703,0.180975 0.16757,0.180975 0.113947,0 0.174272,-0.073731 0.174272,-0.2144889 V 1.4478002 c 0,-0.1407583 -0.06032,-0.2144889 -0.167569,-0.2144889 -0.09384,0 -0.160867,0.067028 -0.174273,0.1675694 -0.227894,-0.1742722 -0.529519,-0.2614083 -0.891469,-0.2614083 -0.676981,0 -1.179689,0.3284361 -1.179689,0.7775222 0,0.2211917 0.12065,0.4289778 0.321733,0.5496278 0.194381,0.12065 0.388762,0.1675695 0.884767,0.2144889 0.368653,0.040217 0.542925,0.080433 0.717197,0.180975 0.16757,0.087136 0.274814,0.2345972 0.274814,0.3753556 0,0.3284361 -0.422275,0.5697361 -0.992011,0.5697361 -0.549628,0 -0.998714,-0.2278944 -0.998714,-0.5094111 z" />
    <path
       id="path862"
       style="fill:#000000;fill-opacity:0.24705882"
       d="m 45.664034,1.0054169 c -0.556331,0 -0.998714,0.4423833 -0.998714,1.0054166 0,0.5563306 0.442383,1.0054167 0.992011,1.0054167 0.542925,0 0.985308,-0.4490861 0.985308,-1.0054167 0,-0.5496278 -0.442383,-1.0054166 -0.978605,-1.0054166 z" />
  </g>
</svg>
