<?xml version="1.0" encoding="UTF-8" standalone="no"?>
<svg
   xmlns:dc="http://purl.org/dc/elements/1.1/"
   xmlns:cc="http://creativecommons.org/ns#"
   xmlns:rdf="http://www.w3.org/1999/02/22-rdf-syntax-ns#"
   xmlns:svg="http://www.w3.org/2000/svg"
   xmlns="http://www.w3.org/2000/svg"
   viewBox="0 0 446.3639 93.09819"
   height="93.09819"
   width="446.36389"
   id="svg5491"
   version="1.1">
  <metadata
     id="metadata5497">
    <rdf:RDF>
      <cc:Work
         rdf:about="">
        <dc:format>image/svg+xml</dc:format>
        <dc:type
           rdf:resource="http://purl.org/dc/dcmitype/StillImage" />
        <dc:title></dc:title>
      </cc:Work>
    </rdf:RDF>
  </metadata>
  <defs
     id="defs5495" />
  <g
     transform="translate(7.1608909e-5,100.51253)"
     id="g5535">
    <path
       id="path5543"
       d="m 93.769604,-8.249376 c -0.43472,-0.219971 -1.12024,-0.889399 -1.523379,-1.487619 L 91.51324,-10.824672 91.59662,-54.316955 91.68,-97.809241 92.875299,-98.90462 94.070599,-100 h 10.841541 c 10.49191,0 10.8688,0.02144 11.68672,0.664817 0.46485,0.365649 0.99135,0.937927 1.16999,1.27173 0.47003,0.878252 0.44803,87.449763 -0.0224,88.328851 -0.19099,0.356867 -0.80606,0.928608 -1.36683,1.270531 -0.95469,0.582119 -1.68144,0.621456 -11.41958,0.61816 -7.678278,-0.0026 -10.606851,-0.108188 -11.190393,-0.403465 z m -51.47908,-45.670623 c 0,-0.44 0.07263,-0.62 0.161405,-0.4 0.08877,0.22 0.08877,0.580001 0,0.800001 -0.08877,0.22 -0.161405,0.04 -0.161405,-0.400001 z"
       style="fill:#dda326;stroke-width:0.31999999" />
    <path
       id="path5541"
       d="M 1.8440226,-8.340922 C -0.04107146,-9.363763 0,-8.874163 0,-30.322945 c 0,-20.874641 0.01330557,-21.06065 1.473358,-20.597249 0.343526,0.109031 5.8223689,5.418679 12.175206,11.799217 14.010839,14.07193 12.911435,12.209805 12.911435,21.868874 0,7.237178 -0.168857,8.026554 -1.909525,8.926688 -1.375643,0.711373 -21.4920218,0.697696 -22.8064514,-0.01552 z M 0.95999998,-57.051221 c -0.264,-0.09061 -0.58579496,-0.323149 -0.7150999,-0.516758 -0.12930495,-0.19361 -0.23730494,-9.179172 -0.23999999,-19.967911 -0.005376445,-21.52283 -0.05362646,-20.966042 1.90462531,-21.978693 1.3820934,-0.714707 21.3465496,-0.721077 22.7269396,-0.0072 1.855016,0.959266 1.923534,1.269208 1.923534,8.701026 0,9.922485 1.104272,8.021761 -12.760499,21.963976 -6.2697251,6.304702 -11.6155,11.577243 -11.8795,11.716715 -0.264,0.139472 -0.696,0.179453 -0.96000002,0.08884 z"
       style="fill:#5d5d5d;stroke-width:0.31999999" />
    <path
       id="path5539"
       d="m 53.119999,-8.520189 -2.08,-0.653802 L 29.68036,-30.501099 C 14.610227,-45.548277 8.2190805,-52.136178 7.9755435,-52.874101 c -0.2464419,-0.746726 -0.2467616,-1.344099 -0.00112,-2.088406 0.2418602,-0.732839 6.6416655,-7.335284 21.5448185,-22.227008 17.248808,-17.235579 21.499006,-21.32113 22.800757,-21.91749 1.585536,-0.726369 1.736358,-0.733825 16.685353,-0.824785 13.34448,-0.0812 15.143174,-0.03397 15.586403,0.409261 0.275577,0.275577 0.416451,0.748883 0.313053,1.05179 -0.103396,0.302906 -9.586311,9.982739 -21.073142,21.51074 -11.486832,11.528 -21.057296,21.299162 -21.267699,21.713696 -0.227859,0.448919 -0.297366,1.225319 -0.171894,1.920001 0.183542,1.016179 2.920979,3.884838 21.266854,22.286304 11.580908,11.616001 21.13397,21.34906 21.229026,21.629019 0.475667,1.400931 0.41025,1.40736 -15.036121,1.477788 -13.96551,0.06368 -14.749264,0.03618 -16.731833,-0.586998 z"
       style="fill:#93093f;stroke-width:0.31999999" />
    <g
       id="text5547"
       style="font-style:normal;font-weight:normal;font-size:40px;line-height:1.25;font-family:sans-serif;letter-spacing:0px;word-spacing:0px;fill:#020202;fill-opacity:1;stroke:none;stroke-width:1000;stroke-miterlimit:4;stroke-dasharray:none"
       aria-label="Kommunales
">
      <path
         id="path5988"
         style="font-style:normal;font-variant:normal;font-weight:bold;font-stretch:normal;font-size:32px;line-height:100%;font-family:'Liberation Sans';-inkscape-font-specification:'Liberation Sans Bold';letter-spacing:0px;fill:#020202;stroke-width:1000;stroke-miterlimit:4;stroke-dasharray:none"
         d="m 158.17168,-77.128342 c -2.63542,-3.369792 -5.27083,-6.739583 -7.90625,-10.109375 -1.95991,0.82219 -3.40144,3.136218 -2.71875,5.252571 -0.15063,1.710645 0.82202,4.595341 -1.56578,5.07979 -2.69699,0.547179 -3.67703,-2.434535 -3.0848,-4.548965 0.0954,-5.89571 0.0147,-11.793135 0.0412,-17.689646 1.70467,-0.27383 4.95712,-0.376943 4.63184,2.16478 -0.0495,2.606287 -0.0102,5.213083 -0.0225,7.819595 3.30729,-3.328125 6.61458,-6.65625 9.92187,-9.984375 1.62704,0.364097 3.47242,-0.663198 4.94094,0.429738 -2.99073,2.960921 -5.98146,5.921841 -8.97219,8.882762 3.39063,4.234375 6.78125,8.46875 10.17188,12.703125 -1.8125,0 -3.625,0 -5.4375,0 z" />
      <path
         id="path5990"
         style="font-style:normal;font-variant:normal;font-weight:bold;font-stretch:normal;font-size:32px;line-height:100%;font-family:'Liberation Sans';-inkscape-font-specification:'Liberation Sans Bold';letter-spacing:0px;fill:#020202;stroke-width:1000;stroke-miterlimit:4;stroke-dasharray:none"
         d="m 182.21855,-85.597092 c 0.44192,4.288346 -3.11305,8.696464 -7.5015,8.791744 -4.1184,0.632569 -8.79287,-2.192672 -9.34089,-6.492994 -1.04283,-4.104949 0.92255,-9.058834 5.15293,-10.583311 3.82796,-1.379458 8.95083,-0.211381 10.78126,3.660718 0.67926,1.436906 0.92213,3.045107 0.9082,4.623843 z m -4.59375,0 c 0.24687,-2.285329 -0.68485,-5.291893 -3.23931,-5.739057 -2.60029,-0.455186 -4.89325,2.200701 -4.56913,4.704549 -0.30989,2.42327 0.19386,5.521996 2.6367,6.669799 2.5203,0.874623 5.45104,-1.561884 5.10262,-4.193915 0.0494,-0.47877 0.0665,-0.960277 0.0691,-1.441376 z" />
      <path
         id="path5992"
         style="font-style:normal;font-variant:normal;font-weight:bold;font-stretch:normal;font-size:32px;line-height:100%;font-family:'Liberation Sans';-inkscape-font-specification:'Liberation Sans Bold';letter-spacing:0px;fill:#020202;stroke-width:1000;stroke-miterlimit:4;stroke-dasharray:none"
         d="m 195.67168,-77.128342 c -0.19646,-4.219212 0.45773,-8.501536 -0.46786,-12.668632 -1.10662,-2.130217 -4.85379,-0.992226 -4.76246,1.339836 -0.73532,2.639426 -0.10022,5.388123 -0.34944,8.07295 1.25254,2.040367 -1.97442,4.91961 -3.65252,3.124193 -1.64722,-1.762374 -0.37059,-4.211318 -0.69681,-6.297103 -0.0513,-3.406407 0.0184,-6.81484 -0.12157,-10.219682 1.43615,-1.33481 3.48696,-0.04729 4.47379,1.154668 0.96501,1.175383 1.86591,-1.452335 3.1853,-1.504977 1.58775,-0.719987 3.66431,-0.522066 4.76725,0.946866 0.96581,1.632258 2.91083,1.587435 3.64609,-0.196119 2.74701,-2.531574 7.57575,-0.351025 8.05772,3.358244 0.50655,3.898411 -0.0285,7.830963 0.23454,11.740916 -0.62425,2.288189 -4.68484,1.596152 -4.5352,-0.768651 0.21873,-3.456729 0.35622,-6.978385 -0.17471,-10.406645 -0.78702,-2.198222 -4.32798,-1.828007 -4.79048,0.411252 -0.84507,2.485721 -0.32954,5.153659 -0.41631,7.720336 0.30112,1.691496 0.35762,4.11507 -1.9798,4.351841 -0.8089,0.08194 -1.61805,-0.0497 -2.41753,-0.159293 z" />
      <path
         id="path5994"
         style="font-style:normal;font-variant:normal;font-weight:bold;font-stretch:normal;font-size:32px;line-height:100%;font-family:'Liberation Sans';-inkscape-font-specification:'Liberation Sans Bold';letter-spacing:0px;fill:#020202;stroke-width:1000;stroke-miterlimit:4;stroke-dasharray:none"
         d="m 224.10918,-77.128342 c -0.19646,-4.219212 0.45773,-8.501536 -0.46786,-12.668632 -1.10662,-2.130217 -4.85379,-0.992226 -4.76246,1.339836 -0.73532,2.639426 -0.10022,5.388123 -0.34944,8.07295 1.25254,2.040367 -1.97442,4.91961 -3.65252,3.124193 -1.64722,-1.762374 -0.37059,-4.211318 -0.69681,-6.297103 -0.0513,-3.406407 0.0184,-6.81484 -0.12157,-10.219682 1.43615,-1.33481 3.48696,-0.04729 4.47379,1.154668 0.96501,1.175383 1.86591,-1.452335 3.1853,-1.504977 1.58775,-0.719987 3.66431,-0.522066 4.76725,0.946866 0.96581,1.632258 2.91083,1.587435 3.64609,-0.196119 2.74701,-2.531574 7.57575,-0.351025 8.05772,3.358244 0.50655,3.898411 -0.0285,7.830963 0.23454,11.740916 -0.62425,2.288189 -4.68484,1.596152 -4.5352,-0.768651 0.21873,-3.456729 0.35622,-6.978385 -0.17471,-10.406645 -0.78702,-2.198222 -4.32798,-1.828007 -4.79048,0.411252 -0.84507,2.485721 -0.32954,5.153659 -0.41631,7.720336 0.30112,1.691496 0.35762,4.11507 -1.9798,4.351841 -0.8089,0.08194 -1.61805,-0.0497 -2.41753,-0.159293 z" />
      <path
         id="path5996"
         style="font-style:normal;font-variant:normal;font-weight:bold;font-stretch:normal;font-size:32px;line-height:100%;font-family:'Liberation Sans';-inkscape-font-specification:'Liberation Sans Bold';letter-spacing:0px;fill:#020202;stroke-width:1000;stroke-miterlimit:4;stroke-dasharray:none"
         d="m 246.73418,-94.034592 c 0.22498,4.179945 -0.51915,8.439046 0.52111,12.553068 1.2303,2.190465 5.13444,1.533157 5.53426,-0.963864 1.01787,-2.643844 0.22206,-5.49904 0.52342,-8.234241 -1.23394,-1.988927 1.50905,-4.817007 3.44761,-3.243026 1.75326,1.423531 0.73349,3.86357 0.90411,5.765973 0.002,3.479581 -0.035,6.960698 0.10111,10.438497 -1.70698,2.239785 -4.56257,-0.455257 -4.91867,-1.492238 -1.45435,1.410671 -3.16137,2.884885 -5.34835,2.434834 -2.39058,-0.132867 -4.78206,-1.946904 -4.92699,-4.456039 -0.58114,-3.718092 0.1298,-7.496927 -0.35394,-11.219864 0.26568,-2.615264 2.91797,-1.373274 4.51633,-1.5831 z" />
      <path
         id="path5998"
         style="font-style:normal;font-variant:normal;font-weight:bold;font-stretch:normal;font-size:32px;line-height:100%;font-family:'Liberation Sans';-inkscape-font-specification:'Liberation Sans Bold';letter-spacing:0px;fill:#020202;stroke-width:1000;stroke-miterlimit:4;stroke-dasharray:none"
         d="m 273.10918,-77.128342 c -0.22674,-4.179079 0.52351,-8.43874 -0.52595,-12.550687 -1.23652,-2.19103 -5.14265,-1.533047 -5.54838,0.966367 -1.0186,2.643122 -0.21854,5.497455 -0.5188,8.231915 1.16429,1.871023 -1.28094,4.66735 -3.23488,3.394335 -1.80601,-1.17664 -1.07841,-3.522314 -1.09666,-5.319211 -0.0385,-3.788949 0.009,-7.582245 -0.12599,-11.371157 1.95433,-1.769094 4.41874,1.053114 4.96337,1.819665 1.41889,-1.582641 3.38632,-2.972098 5.61337,-2.42619 2.56011,0.279185 4.81534,2.546867 4.71179,5.189051 0.46006,3.615554 -0.20991,7.26693 0.23121,10.883589 -0.37467,2.269296 -3.07017,0.744047 -4.46908,1.182323 z" />
      <path
         id="path6000"
         style="font-style:normal;font-variant:normal;font-weight:bold;font-stretch:normal;font-size:32px;line-height:100%;font-family:'Liberation Sans';-inkscape-font-specification:'Liberation Sans Bold';letter-spacing:0px;fill:#020202;stroke-width:1000;stroke-miterlimit:4;stroke-dasharray:none"
         d="m 285.6248,-76.815842 c -3.68491,0.509819 -6.60672,-4.099208 -4.81799,-7.286912 1.09898,-2.537967 4.27618,-3.752183 6.81529,-3.135132 1.74946,0.425151 4.25405,-0.887155 2.85608,-2.87539 -1.20527,-2.175162 -3.887,-1.332857 -4.93489,0.459447 -1.16945,0.950267 -3.66697,1.205296 -3.95227,-0.720261 -0.0397,-1.979536 2.10267,-2.903766 3.69515,-3.498482 3.01551,-1.126148 7.02912,-0.59514 8.95922,2.202451 1.53445,2.841572 0.75284,6.154771 0.66689,9.202191 -0.27841,2.175207 4.28059,4.103691 1.36712,5.527509 -2.24346,1.096383 -3.72603,-1.019664 -5.28765,-2.056992 -1.60254,0.02384 -2.31908,2.151043 -4.06706,2.194073 -0.42774,0.08658 -0.87431,0.08795 -1.29989,-0.0125 z m 5.10938,-8.140625 c -1.93576,-0.09332 -4.4351,-0.240291 -5.59962,1.650987 -1.29604,2.104885 2.08105,4.63152 3.77368,2.880428 1.41013,-1.002007 2.04339,-2.851902 1.82594,-4.531415 z" />
      <path
         id="path6002"
         style="font-style:normal;font-variant:normal;font-weight:bold;font-stretch:normal;font-size:32px;line-height:100%;font-family:'Liberation Sans';-inkscape-font-specification:'Liberation Sans Bold';letter-spacing:0px;fill:#020202;stroke-width:1000;stroke-miterlimit:4;stroke-dasharray:none"
         d="m 299.53105,-77.128342 c 0,-7.729166 0,-15.458332 0,-23.187498 1.94799,-0.59874 5.19354,0.12439 4.49029,2.79232 -0.25453,6.418898 -0.0302,12.842758 -0.0662,19.263904 -0.24892,2.342839 -3.08005,0.626023 -4.42406,1.131274 z" />
      <path
         id="path6004"
         style="font-style:normal;font-variant:normal;font-weight:bold;font-stretch:normal;font-size:32px;line-height:100%;font-family:'Liberation Sans';-inkscape-font-specification:'Liberation Sans Bold';letter-spacing:0px;fill:#020202;stroke-width:1000;stroke-miterlimit:4;stroke-dasharray:none"
         d="m 315.32793,-76.815842 c -4.1526,0.457951 -8.01914,-3.408537 -7.87752,-7.51763 -0.58115,-3.835564 1.22617,-8.276626 5.14711,-9.685853 3.79225,-1.362975 8.88017,0.675128 9.68844,4.872288 0.62598,1.488069 1.3647,4.498774 -1.24989,4.419883 -2.15952,-0.06516 -4.31761,0.08512 -6.4714,-0.04002 -1.82957,-0.586866 -3.33697,0.70865 -2.25737,2.464395 0.55962,1.756705 2.69259,3.369611 4.47961,2.229509 1.37391,-0.679894 2.73285,-2.267183 4.40408,-1.574683 2.18285,1.601506 -0.94974,3.924939 -2.64131,4.335954 -1.02501,0.381352 -2.12816,0.568125 -3.22175,0.496153 z m 0,-14.765625 c -2.21919,-0.644431 -4.43251,3.247126 -1.64557,3.984539 1.53585,0.40638 4.63451,0.65267 4.6942,-1.562537 -0.25145,-1.379512 -1.63559,-2.516715 -3.04863,-2.422002 z" />
      <path
         id="path6006"
         style="font-style:normal;font-variant:normal;font-weight:bold;font-stretch:normal;font-size:32px;line-height:100%;font-family:'Liberation Sans';-inkscape-font-specification:'Liberation Sans Bold';letter-spacing:0px;fill:#020202;stroke-width:1000;stroke-miterlimit:4;stroke-dasharray:none"
         d="m 340.46855,-82.065842 c 0.0262,3.05609 -3.1235,5.244919 -5.98431,5.151396 -3.10208,0.433044 -6.75094,-0.08235 -8.80599,-2.688841 -0.75655,-2.519782 3.39375,-3.072611 4.2214,-0.989209 1.71119,1.343499 4.50284,1.514263 6.07328,-0.14101 0.85538,-1.938618 -1.48304,-3.257544 -3.12235,-3.295172 -2.66423,-0.06115 -5.95114,-1.060283 -6.89855,-3.795442 -1.05895,-3.057157 1.79006,-6.417831 4.9064,-6.382135 3.12562,-0.583505 6.9095,0.08372 8.78615,2.894311 0.34712,2.474996 -3.44647,2.368744 -4.35374,0.636673 -1.4506,-1.333954 -4.90629,-1.40429 -5.19006,1.001583 0.42665,2.174204 2.99901,2.102366 4.73938,2.374082 2.4817,0.387455 5.38903,1.905044 5.63077,4.689082 0,0 0.008,0.27236 0.008,0.27236 0,0 -0.0106,0.272322 -0.0106,0.272322 z" />
    </g>
    <g
       id="text5563"
       style="font-style:normal;font-weight:normal;font-size:40px;line-height:1.25;font-family:sans-serif;letter-spacing:0px;word-spacing:0px;fill:#020202;fill-opacity:1;stroke:none"
       aria-label="Integrationszentrum
">
      <path
         id="path6011"
         style="font-style:normal;font-variant:normal;font-weight:bold;font-stretch:normal;font-size:32px;line-height:100%;font-family:'Liberation Sans';-inkscape-font-specification:'Liberation Sans Bold';letter-spacing:0px;fill:#020202"
         d="m 142.63728,-47.128342 c 0,-7.338542 0,-14.677083 0,-22.015625 2.49024,-0.501271 5.9596,-0.07109 4.60938,3.327068 0,6.229519 0,12.459038 0,18.688557 -1.53646,0 -3.07292,0 -4.60938,0 z" />
      <path
         id="path6013"
         style="font-style:normal;font-variant:normal;font-weight:bold;font-stretch:normal;font-size:32px;line-height:100%;font-family:'Liberation Sans';-inkscape-font-specification:'Liberation Sans Bold';letter-spacing:0px;fill:#020202"
         d="m 162.55916,-47.128342 c -0.2029,-4.14144 0.47218,-8.39847 -0.48408,-12.457722 -1.90163,-3.255665 -6.76216,-0.350912 -6.00747,2.945632 -0.21866,3.167412 0.0332,6.342046 -0.071,9.51209 -1.91577,0.117349 -5.64012,0.585945 -4.39968,-2.575707 0.002,-4.776839 0.0861,-9.556285 -0.11585,-14.330543 2.18784,-0.51681 5.25288,0.05015 4.54491,2.871051 1.20657,-1.558221 2.58559,-3.327325 4.89588,-3.223285 2.84696,-0.260055 5.97348,1.892687 5.84862,4.949625 0.38129,4.09399 0.0516,8.20679 0.16369,12.308859 -1.45836,0 -2.91671,0 -4.37507,0 z" />
      <path
         id="path6015"
         style="font-style:normal;font-variant:normal;font-weight:bold;font-stretch:normal;font-size:32px;line-height:100%;font-family:'Liberation Sans';-inkscape-font-specification:'Liberation Sans Bold';letter-spacing:0px;fill:#020202"
         d="m 175.49666,-46.847092 c -3.98344,0.352456 -4.53254,-4.55235 -4.07364,-7.458256 -0.40273,-2.280304 1.42723,-6.972385 -1.74762,-6.863824 -1.38149,-1.485105 0.18384,-3.592436 1.81918,-3.107081 0.8319,-1.547491 2.07078,-5.676382 4.23521,-3.20216 -0.29621,2.284531 0.33052,4.388033 2.96078,3.546826 1.38889,1.531172 -0.19363,3.97773 -2.12855,2.792906 -1.77799,1.441203 -0.20397,4.489552 -0.75785,6.574544 -0.35609,2.470302 0.20323,5.075865 3.19299,4.885228 1.72132,2.520609 -1.73085,2.961985 -3.5005,2.831817 z" />
      <path
         id="path6017"
         style="font-style:normal;font-variant:normal;font-weight:bold;font-stretch:normal;font-size:32px;line-height:100%;font-family:'Liberation Sans';-inkscape-font-specification:'Liberation Sans Bold';letter-spacing:0px;fill:#020202"
         d="m 188.77791,-46.815842 c -4.07933,0.415658 -7.85598,-3.172799 -7.84076,-7.239608 -0.56234,-3.795374 0.87323,-8.373906 4.85142,-9.837832 3.51023,-1.291723 8.47403,-0.0562 9.62633,3.869822 1.67409,2.339096 1.21162,6.608855 -2.49129,5.285743 -2.34558,0.422465 -6.11515,-0.851262 -7.56028,0.647661 -0.34483,2.858434 3.49934,5.889693 5.82687,3.487061 1.00221,-2.38567 6.91549,-0.856292 3.5404,1.467451 -1.46659,1.674767 -3.78044,2.375055 -5.95269,2.319702 z m 0,-14.765625 c -3.19359,-0.627922 -4.58316,5.529072 -0.37192,4.072103 1.89962,0.623536 5.00671,-0.206968 3.00882,-2.557475 -0.52537,-0.919525 -1.54634,-1.61754 -2.6369,-1.514628 z" />
      <path
         id="path6019"
         style="font-style:normal;font-variant:normal;font-weight:bold;font-stretch:normal;font-size:32px;line-height:100%;font-family:'Liberation Sans';-inkscape-font-specification:'Liberation Sans Bold';letter-spacing:0px;fill:#020202"
         d="m 206.74666,-40.347092 c -2.75694,0.519014 -7.76061,-2.016458 -6.87959,-4.58566 2.1522,-0.664992 4.48938,-0.465774 5.71892,1.506 3.60806,1.439 5.80416,-3.331308 4.71453,-6.185585 -1.87435,1.994985 -4.63735,3.101374 -7.52429,2.049503 -3.43226,-1.250562 -4.13948,-5.305351 -4.06638,-8.483814 0.0728,-3.166329 1.22048,-7.018542 4.66445,-8.070531 2.58563,-0.789802 5.90731,0.161668 7.01298,2.801337 -1.4957,-3.220931 5.58533,-4.165707 4.38539,-0.746423 -0.19692,5.661961 0.29805,11.368593 -0.30332,17.002193 -0.87579,3.287216 -4.54656,4.952693 -7.72269,4.71298 z m 3.67187,-15.46875 c 0.89642,-3.159276 -3.07462,-7.613354 -5.83508,-4.498845 -1.85293,2.619269 -1.85642,6.912095 0.18751,9.388907 3.11128,2.290994 6.13058,-1.380979 5.64726,-4.494164 0,0 3.1e-4,-0.395898 3.1e-4,-0.395898 z" />
      <path
         id="path6021"
         style="font-style:normal;font-variant:normal;font-weight:bold;font-stretch:normal;font-size:32px;line-height:100%;font-family:'Liberation Sans';-inkscape-font-specification:'Liberation Sans Bold';letter-spacing:0px;fill:#020202"
         d="m 219.23103,-47.128342 c -0.0436,-5.635285 0.10856,-11.27353 -0.1249,-16.90625 2.23696,-0.57041 5.3427,0.128874 4.50467,3.01679 0.77619,-1.742225 2.4325,-4.39685 4.75929,-3.110614 1.04659,1.306502 1.33859,4.571632 -1.04799,3.332217 -2.96161,0.256527 -4.37435,3.81475 -3.69863,6.412744 -0.67803,2.241162 1.71401,7.482144 -1.99128,7.255113 -0.80038,0 -1.60077,0 -2.40116,0 z" />
      <path
         id="path6023"
         style="font-style:normal;font-variant:normal;font-weight:bold;font-stretch:normal;font-size:32px;line-height:100%;font-family:'Liberation Sans';-inkscape-font-specification:'Liberation Sans Bold';letter-spacing:0px;fill:#020202"
         d="m 235.57478,-46.815842 c -3.92996,0.558958 -6.58921,-4.454247 -4.64135,-7.68641 1.78037,-2.954236 5.69484,-3.017706 8.74712,-2.786518 3.2844,-1.122731 -1.70235,-6.816278 -3.25236,-3.181711 -0.86647,2.031756 -6.18076,2.084275 -4.73262,-0.712871 1.49044,-2.878852 5.15141,-3.402722 8.0776,-3.113886 2.71526,0.268016 5.21077,2.453799 5.24289,5.288739 0.31176,2.611211 -0.1937,5.24561 0.14107,7.855575 1.18182,1.350728 4.17145,3.672815 0.48319,4.275294 -2.27197,0.888425 -4.38603,-2.222111 -4.83856,-2.735313 -1.10105,1.753467 -3.13937,2.910256 -5.22698,2.797101 z m 5.10938,-8.140625 c -2.5964,-0.734921 -7.60805,0.976274 -5.21725,4.284493 2.42692,2.177286 5.96936,-1.157781 5.22476,-3.934955 -0.002,-0.116513 -0.005,-0.233025 -0.008,-0.349538 z" />
      <path
         id="path6025"
         style="font-style:normal;font-variant:normal;font-weight:bold;font-stretch:normal;font-size:32px;line-height:100%;font-family:'Liberation Sans';-inkscape-font-specification:'Liberation Sans Bold';letter-spacing:0px;fill:#020202"
         d="m 253.80916,-46.847092 c -3.98344,0.352456 -4.53254,-4.55235 -4.07364,-7.458256 -0.40273,-2.280304 1.42723,-6.972385 -1.74762,-6.863824 -1.38149,-1.485105 0.18384,-3.592436 1.81918,-3.107081 0.8319,-1.547491 2.07078,-5.676382 4.23521,-3.20216 -0.29621,2.284531 0.33052,4.388033 2.96078,3.546826 1.38889,1.531172 -0.19363,3.97773 -2.12855,2.792906 -1.77799,1.441203 -0.20397,4.489552 -0.75785,6.574544 -0.35609,2.470302 0.20323,5.075865 3.19299,4.885228 1.72132,2.520609 -1.73085,2.961985 -3.5005,2.831817 z" />
      <path
         id="path6027"
         style="font-style:normal;font-variant:normal;font-weight:bold;font-stretch:normal;font-size:32px;line-height:100%;font-family:'Liberation Sans';-inkscape-font-specification:'Liberation Sans Bold';letter-spacing:0px;fill:#020202"
         d="m 260.16853,-67.081467 c -0.61875,-2.231077 0.6312,-4.107945 2.98698,-3.397861 3.38666,1.020815 0.61649,4.843248 -2.16326,3.339663 0,0 -0.2977,6.63e-4 -0.2977,6.63e-4 0,0 -0.52602,0.05754 -0.52602,0.05754 z m 0,19.953125 c 0,-5.635417 0,-11.270833 0,-16.90625 1.91547,-0.118149 5.63927,-0.584789 4.39063,2.575562 0,4.776896 0,9.553792 0,14.330688 -1.46354,0 -2.92709,0 -4.39063,0 z" />
      <path
         id="path6029"
         style="font-style:normal;font-variant:normal;font-weight:bold;font-stretch:normal;font-size:32px;line-height:100%;font-family:'Liberation Sans';-inkscape-font-specification:'Liberation Sans Bold';letter-spacing:0px;fill:#020202"
         d="m 285.10603,-55.597092 c 0.38127,4.334982 -3.0952,8.76319 -7.58459,8.788281 -4.0848,0.512831 -8.70902,-2.072919 -9.24357,-6.410272 -1.00115,-4.166367 0.86071,-9.262034 5.31137,-10.715619 4.10278,-1.339968 9.5747,0.218689 11.00273,4.737701 0.36712,1.161755 0.51209,2.384502 0.51406,3.599909 z m -4.59375,0 c 0.87306,-3.205949 -2.89249,-7.703645 -5.88179,-5.168932 -2.72652,2.311895 -2.46683,6.836512 -0.85724,9.709819 2.5214,2.881942 6.99289,0.323683 6.70181,-3.208558 0.0443,-0.442481 0.055,-0.888086 0.0372,-1.332329 z" />
      <path
         id="path6031"
         style="font-style:normal;font-variant:normal;font-weight:bold;font-stretch:normal;font-size:32px;line-height:100%;font-family:'Liberation Sans';-inkscape-font-specification:'Liberation Sans Bold';letter-spacing:0px;fill:#020202"
         d="m 299.55916,-47.128342 c -0.2029,-4.14144 0.47218,-8.39847 -0.48408,-12.457722 -1.90163,-3.255665 -6.76216,-0.350912 -6.00747,2.945632 -0.21866,3.167412 0.0332,6.342046 -0.0709,9.51209 -1.91577,0.117349 -5.64012,0.585945 -4.39968,-2.575707 0.002,-4.776839 0.0861,-9.556285 -0.11585,-14.330543 2.18784,-0.51681 5.25288,0.05015 4.54491,2.871051 1.20657,-1.558221 2.58559,-3.327325 4.89588,-3.223285 2.84696,-0.260055 5.97348,1.892687 5.84862,4.949625 0.38129,4.09399 0.0516,8.20679 0.16369,12.308859 -1.45836,0 -2.91671,0 -4.37507,0 z" />
      <path
         id="path6033"
         style="font-style:normal;font-variant:normal;font-weight:bold;font-stretch:normal;font-size:32px;line-height:100%;font-family:'Liberation Sans';-inkscape-font-specification:'Liberation Sans Bold';letter-spacing:0px;fill:#020202"
         d="m 322.41853,-52.065842 c 0.0938,3.438547 -3.68391,5.112312 -6.66707,5.277273 -3.17162,0.175382 -7.4328,-0.464019 -8.5046,-3.997129 1.59155,-2.509801 4.81129,0.267313 6.57481,1.240923 2.75644,1.064334 6.4871,-2.671945 2.57273,-3.923263 -2.87156,-0.917959 -6.83509,-0.743729 -8.3078,-3.862246 -1.46739,-3.107258 1.37385,-6.924213 4.70045,-6.868418 3.30801,-0.622493 7.61197,0.130982 9.07337,3.565631 -1.42843,2.786301 -4.61412,0.183429 -6.1646,-0.933276 -2.90459,-1.243602 -5.48084,3.315282 -1.63875,3.732743 2.88229,0.635379 6.72988,0.818402 8.05048,3.954436 0.24011,0.570191 0.35013,1.195422 0.31098,1.813326 z" />
      <path
         id="path6035"
         style="font-style:normal;font-variant:normal;font-weight:bold;font-stretch:normal;font-size:32px;line-height:100%;font-family:'Liberation Sans';-inkscape-font-specification:'Liberation Sans Bold';letter-spacing:0px;fill:#020202"
         d="m 324.80916,-47.128342 c -0.87193,-3.569019 2.72963,-5.855774 4.33136,-8.563684 0.9633,-1.628571 3.9493,-4.136849 3.6317,-5.208333 -2.24475,-0.556782 -7.33452,1.628945 -7.42307,-1.745852 0.51843,-2.771088 4.03175,-0.851546 6.00124,-1.388381 2.24667,0 4.49335,0 6.74002,0 0.87863,3.56495 -2.5026,5.988861 -4.30757,8.563189 -0.90105,1.605383 -4.12547,4.235678 -3.52416,5.178329 2.85757,0.183309 5.82073,-0.57274 8.59735,0.361998 0.90767,2.712999 -1.56684,3.313991 -3.67633,2.802734 -3.45685,0 -6.91369,0 -10.37054,0 z" />
      <path
         id="path6037"
         style="font-style:normal;font-variant:normal;font-weight:bold;font-stretch:normal;font-size:32px;line-height:100%;font-family:'Liberation Sans';-inkscape-font-specification:'Liberation Sans Bold';letter-spacing:0px;fill:#020202"
         d="m 348.90291,-46.815842 c -4.07933,0.415658 -7.85598,-3.172799 -7.84076,-7.239608 -0.56234,-3.795374 0.87323,-8.373906 4.85142,-9.837832 3.51023,-1.291723 8.47403,-0.0562 9.62633,3.869822 1.67409,2.339096 1.21162,6.608855 -2.49129,5.285743 -2.34558,0.422465 -6.11515,-0.851262 -7.56028,0.647661 -0.34483,2.858434 3.49934,5.889693 5.82687,3.487061 1.00221,-2.38567 6.91549,-0.856292 3.5404,1.467451 -1.46659,1.674767 -3.78044,2.375055 -5.95269,2.319702 z m 0,-14.765625 c -3.19359,-0.627922 -4.58316,5.529072 -0.37192,4.072103 1.89962,0.623536 5.00671,-0.206968 3.00882,-2.557475 -0.52537,-0.919525 -1.54634,-1.61754 -2.6369,-1.514628 z" />
      <path
         id="path6039"
         style="font-style:normal;font-variant:normal;font-weight:bold;font-stretch:normal;font-size:32px;line-height:100%;font-family:'Liberation Sans';-inkscape-font-specification:'Liberation Sans Bold';letter-spacing:0px;fill:#020202"
         d="m 370.74666,-47.128342 c -0.2029,-4.14144 0.47218,-8.39847 -0.48408,-12.457722 -1.90163,-3.255665 -6.76216,-0.350912 -6.00747,2.945632 -0.21866,3.167412 0.0332,6.342046 -0.0709,9.51209 -1.91577,0.117349 -5.64012,0.585945 -4.39968,-2.575707 0.002,-4.776839 0.0861,-9.556285 -0.11585,-14.330543 2.18784,-0.51681 5.25288,0.05015 4.54491,2.871051 1.20657,-1.558221 2.58559,-3.327325 4.89588,-3.223285 2.84696,-0.260055 5.97348,1.892687 5.84862,4.949625 0.38129,4.09399 0.0516,8.20679 0.16369,12.308859 -1.45836,0 -2.91671,0 -4.37507,0 z" />
      <path
         id="path6041"
         style="font-style:normal;font-variant:normal;font-weight:bold;font-stretch:normal;font-size:32px;line-height:100%;font-family:'Liberation Sans';-inkscape-font-specification:'Liberation Sans Bold';letter-spacing:0px;fill:#020202"
         d="m 383.68416,-46.847092 c -3.98344,0.352456 -4.53254,-4.55235 -4.07364,-7.458256 -0.40273,-2.280304 1.42723,-6.972385 -1.74762,-6.863824 -1.38149,-1.485105 0.18384,-3.592436 1.81918,-3.107081 0.8319,-1.547491 2.07078,-5.676382 4.23521,-3.20216 -0.29621,2.284531 0.33052,4.388033 2.96078,3.546826 1.38889,1.531172 -0.19363,3.97773 -2.12855,2.792906 -1.77799,1.441203 -0.20397,4.489552 -0.75785,6.574544 -0.35609,2.470302 0.20323,5.075865 3.19299,4.885228 1.72132,2.520609 -1.73085,2.961985 -3.5005,2.831817 z" />
      <path
         id="path6043"
         style="font-style:normal;font-variant:normal;font-weight:bold;font-stretch:normal;font-size:32px;line-height:100%;font-family:'Liberation Sans';-inkscape-font-specification:'Liberation Sans Bold';letter-spacing:0px;fill:#020202"
         d="m 390.04353,-47.128342 c -0.0436,-5.635285 0.10856,-11.27353 -0.1249,-16.90625 2.23696,-0.57041 5.3427,0.128874 4.50467,3.01679 0.77619,-1.742225 2.4325,-4.39685 4.75929,-3.110614 1.04659,1.306502 1.33859,4.571632 -1.04799,3.332217 -2.96161,0.256527 -4.37435,3.81475 -3.69863,6.412744 -0.67803,2.241162 1.71401,7.482144 -1.99128,7.255113 -0.80038,0 -1.60077,0 -2.40116,0 z" />
      <path
         id="path6045"
         style="font-style:normal;font-variant:normal;font-weight:bold;font-stretch:normal;font-size:32px;line-height:100%;font-family:'Liberation Sans';-inkscape-font-specification:'Liberation Sans Bold';letter-spacing:0px;fill:#020202"
         d="m 406.62166,-64.034592 c 0.20318,4.14505 -0.47261,8.40607 0.48424,12.468714 1.9064,3.24491 6.74228,0.334996 5.98923,-2.951911 0.22367,-3.168809 -0.0311,-6.345202 0.0734,-9.516803 1.91588,-0.117092 5.64004,-0.586306 4.40226,2.575665 -0.001,4.77681 -0.10298,9.556628 0.11337,14.330585 -2.18637,0.514722 -5.26276,-0.04583 -4.53586,-2.876058 -1.21086,1.549188 -2.59284,3.312645 -4.89874,3.21153 -2.84416,0.266721 -5.98122,-1.873578 -5.85481,-4.932863 -0.38129,-4.09399 -0.0516,-8.20679 -0.16369,-12.308859 1.46353,0 2.92707,0 4.3906,0 z" />
      <path
         id="path6047"
         style="font-style:normal;font-variant:normal;font-weight:bold;font-stretch:normal;font-size:32px;line-height:100%;font-family:'Liberation Sans';-inkscape-font-specification:'Liberation Sans Bold';letter-spacing:0px;fill:#020202"
         d="m 431.99666,-47.128342 c -0.10719,-4.074697 0.25806,-8.17107 -0.27862,-12.227342 -2.04709,-4.002235 -6.62268,0.631213 -5.27243,3.79167 -0.31388,2.663944 0.54567,6.424336 -0.3906,8.408479 -2.25893,0.512622 -5.27156,0.03367 -4.0201,-3.010809 0.007,-4.622761 0.0791,-9.248047 -0.11628,-13.868248 1.98783,-0.422131 5.3041,-0.111196 4.45052,2.685797 1.58422,-1.725166 3.4073,-3.948579 6.19098,-2.886852 1.82934,-0.08356 2.96318,2.637134 3.606,2.830329 1.68711,-2.55575 5.09444,-4.264002 7.816,-2.191789 3.00848,2.290677 2.31752,6.39715 2.30403,9.693268 -0.009,2.258459 -0.0462,4.517106 -0.008,6.775497 -2.20778,0.457822 -5.72242,0.0929 -4.37159,-3.077694 -0.0527,-3.141503 0.29602,-6.381084 -0.41587,-9.445679 -2.28162,-3.502622 -6.32182,1.003699 -5.1204,3.980529 -0.0676,2.847367 0.0373,5.695348 -0.014,8.542844 -1.45313,0 -2.90626,0 -4.35939,0 z" />
    </g>
    <g
       id="text5569"
       style="font-style:normal;font-weight:normal;font-size:40px;line-height:1.25;font-family:sans-serif;letter-spacing:0px;word-spacing:0px;fill:#000000;fill-opacity:1;stroke:none"
       aria-label="Wuppertal
">
      <path
         id="path6052"
         style="font-style:normal;font-variant:normal;font-weight:bold;font-stretch:normal;font-size:32px;line-height:100%;font-family:'Liberation Sans';-inkscape-font-specification:'Liberation Sans Bold';letter-spacing:0px;fill:#93093f"
         d="m 167.58107,-14.410622 c -1.88163,0.03731 -4.24027,0.552119 -5.63167,-1.070887 -0.64898,-1.438488 -0.80831,-3.063797 -1.1676,-4.608416 -0.8876,-3.815836 -1.8173,-7.623252 -2.57508,-11.467788 -1.24433,5.731215 -2.61338,11.434202 -3.93815,17.147091 -2.07203,0.03967 -5.39831,0.691953 -6.04253,-2.022653 -1.58755,-6.689579 -3.42351,-13.322228 -5.0981,-19.992972 2.47691,-0.910828 5.86007,0.62925 5.56425,3.575447 0.65382,4.233253 1.99636,8.328592 2.64334,12.561359 0.88458,1.997745 0.8176,-1.86801 1.23207,-2.632949 0.98181,-4.513578 2.08458,-8.999559 3.10722,-13.503857 2.00249,-0.310247 4.93666,-0.39576 5.75894,1.910056 0.88186,5.288372 2.57387,10.422104 3.28793,15.746194 1.32882,-5.877198 2.60173,-11.766826 3.875,-17.65625 2.00369,-1.404323 5.24831,0.963348 4.06499,3.347717 -1.08947,2.195259 -1.49963,4.735536 -2.10212,7.127031 -0.97061,3.852705 -1.9936,7.69182 -2.97849,11.540877 z" />
      <path
         id="path6054"
         style="font-style:normal;font-variant:normal;font-weight:bold;font-stretch:normal;font-size:32px;line-height:100%;font-family:'Liberation Sans';-inkscape-font-specification:'Liberation Sans Bold';letter-spacing:0px;fill:#93093f"
         d="m 179.09669,-31.316872 c 0.2489,4.222623 -0.57598,8.54277 0.58414,12.683946 1.58174,2.400832 5.94584,0.788958 5.73869,-2.026361 0.58722,-3.022538 0.0491,-6.09579 0.0206,-9.139371 0.70017,-3.003675 5.82109,-1.662517 4.69504,1.362175 -0.28702,4.579637 -0.10744,9.169783 0.0134,13.751799 -2.02072,2.605977 -4.23894,-3.035934 -6.22868,-0.5512 -2.81186,2.339094 -7.97437,1.135538 -8.84346,-2.651941 -0.8457,-3.685537 -0.0774,-7.486941 -0.39018,-11.220739 -0.61992,-2.396543 1.90784,-2.711495 3.60206,-2.110192 0.27188,0.01171 0.5496,-0.0075 0.80841,-0.09812 z" />
      <path
         id="path6056"
         style="font-style:normal;font-variant:normal;font-weight:bold;font-stretch:normal;font-size:32px;line-height:100%;font-family:'Liberation Sans';-inkscape-font-specification:'Liberation Sans Bold';letter-spacing:0px;fill:#93093f"
         d="m 210.51857,-22.941872 c 0.2928,3.550466 -1.37354,7.94626 -5.20231,8.755829 -2.44303,0.516563 -5.33495,-0.555475 -6.40707,-2.912079 -0.0524,3.109265 0.0368,6.218781 -1e-4,9.3281254 -2.26848,1.330907 -5.71511,-1.3227336 -4.45864,-3.8357204 0.17275,-6.153955 0.02,-12.318664 0.0441,-18.46646 0.68915,-3.592883 4.23108,0.793844 6.20481,-0.349552 1.4164,-1.703577 4.04309,-1.50303 5.94823,-0.72241 2.21649,0.908192 3.57165,3.169212 3.6676,5.515974 0.13138,0.88928 0.18337,1.788257 0.20342,2.686293 z m -4.57813,0 c 0.39408,-2.371958 -0.86301,-5.606537 -3.61436,-5.686927 -2.78851,0.427395 -3.77699,3.67232 -3.59698,6.124167 -0.0676,2.205261 1.0457,5.011579 3.48144,5.374056 2.89681,0.131677 4.164,-3.422352 3.7299,-5.811296 z" />
      <path
         id="path6058"
         style="font-style:normal;font-variant:normal;font-weight:bold;font-stretch:normal;font-size:32px;line-height:100%;font-family:'Liberation Sans';-inkscape-font-specification:'Liberation Sans Bold';letter-spacing:0px;fill:#93093f"
         d="m 230.08107,-22.941872 c 0.2928,3.550466 -1.37354,7.94626 -5.20231,8.755829 -2.44303,0.516563 -5.33495,-0.555475 -6.40707,-2.912079 -0.0524,3.109265 0.0368,6.218781 -1e-4,9.3281254 -2.26848,1.330907 -5.71511,-1.3227336 -4.45864,-3.8357204 0.17275,-6.153955 0.02,-12.318664 0.0441,-18.46646 0.68915,-3.592883 4.23108,0.793844 6.20481,-0.349552 1.4164,-1.703577 4.04309,-1.50303 5.94823,-0.72241 2.21649,0.908192 3.57165,3.169212 3.6676,5.515974 0.13138,0.88928 0.18337,1.788257 0.20342,2.686293 z m -4.57813,0 c 0.39408,-2.371958 -0.86301,-5.606537 -3.61436,-5.686927 -2.78851,0.427395 -3.77699,3.67232 -3.59698,6.124167 -0.0676,2.205261 1.0457,5.011579 3.48144,5.374056 2.89681,0.131677 4.164,-3.422352 3.7299,-5.811296 z" />
      <path
         id="path6060"
         style="font-style:normal;font-variant:normal;font-weight:bold;font-stretch:normal;font-size:32px;line-height:100%;font-family:'Liberation Sans';-inkscape-font-specification:'Liberation Sans Bold';letter-spacing:0px;fill:#93093f"
         d="m 240.56544,-14.098122 c -4.46364,0.50607 -8.34409,-3.950673 -7.9653,-8.267331 -0.43905,-4.112995 2.25962,-8.576445 6.62474,-9.266721 3.38714,-0.535624 7.36601,1.377745 8.20516,4.887419 1.98669,2.051361 -0.1853,6.067741 -3.04564,4.748306 -2.11289,-0.05625 -4.23323,-0.01654 -6.34497,-0.02975 -2.41101,1.059561 0.60373,5.309735 2.69601,5.026282 2.02892,-0.27487 4.0129,-3.321753 6.12956,-1.285991 0.61068,2.805348 -3.22661,4.030228 -5.44217,4.154689 0,0 -0.43313,0.02453 -0.43313,0.02453 0,0 -0.42426,0.0086 -0.42426,0.0086 z m 0,-14.765625 c -3.08757,-0.924202 -4.07439,4.708845 -0.55424,4.436666 2.00413,0.549215 4.89725,-1.942941 2.66198,-3.600289 -0.54667,-0.545709 -1.31774,-0.938703 -2.10774,-0.836377 z" />
      <path
         id="path6062"
         style="font-style:normal;font-variant:normal;font-weight:bold;font-stretch:normal;font-size:32px;line-height:100%;font-family:'Liberation Sans';-inkscape-font-specification:'Liberation Sans Bold';letter-spacing:0px;fill:#93093f"
         d="m 251.45607,-14.410622 c -0.0471,-5.635266 0.11399,-11.273632 -0.1249,-16.90625 2.14767,-2.339756 4.39229,3.546442 5.75622,0.628496 1.55801,-2.162656 5.95851,0.05529 3.6641,2.186127 -1.38069,1.282258 -4.17152,0.843837 -4.65138,3.097051 -0.72672,3.41234 0.19935,6.92126 -0.42571,10.336506 -0.72723,1.746077 -2.93499,0.115867 -4.21833,0.65807 z" />
      <path
         id="path6064"
         style="font-style:normal;font-variant:normal;font-weight:bold;font-stretch:normal;font-size:32px;line-height:100%;font-family:'Liberation Sans';-inkscape-font-specification:'Liberation Sans Bold';letter-spacing:0px;fill:#93093f"
         d="m 268.22169,-14.129372 c -2.65607,0.282478 -4.74444,-2.734271 -4.03125,-5.18457 0,-3.011394 0,-6.022787 0,-9.03418 -2.72616,1.214024 -2.59546,-4.054831 -0.008,-3.405883 0.38158,-1.803576 3.53319,-5.396248 4.19034,-1.981 0.0313,1.865679 1.76695,2.850909 3.21324,3.040186 1.24387,2.367974 -2.52527,2.444046 -2.95198,3.751084 -0.54297,2.451226 0.36315,4.964529 -0.17039,7.416836 -0.27601,2.322408 4.68824,2.36976 3.02262,4.791788 -0.82748,0.860304 -2.1845,0.667319 -3.26414,0.605739 z" />
      <path
         id="path6066"
         style="font-style:normal;font-variant:normal;font-weight:bold;font-stretch:normal;font-size:32px;line-height:100%;font-family:'Liberation Sans';-inkscape-font-specification:'Liberation Sans Bold';letter-spacing:0px;fill:#93093f"
         d="m 278.48732,-14.098122 c -4.20555,0.599307 -6.85925,-5.180378 -4.12315,-8.397401 1.77859,-2.091212 4.82289,-2.388782 7.36476,-1.893759 3.2306,-0.197903 1.36479,-6.052709 -1.35576,-4.128565 -1.52046,1.075365 -4.36181,3.671312 -5.74053,1.117306 -0.21654,-2.703035 3.01227,-3.828846 5.24205,-4.202975 3.12055,-0.523588 6.93816,0.848687 7.86026,4.192691 0.77611,2.814581 -0.15451,5.740346 0.32198,8.586127 2.06163,1.308732 2.78161,5.508504 -0.68405,4.946589 -1.84741,-1.062283 -3.88131,-3.737829 -5.7346,-1.026716 -0.91502,0.6148 -2.04367,0.983905 -3.15096,0.806703 z m 5.10937,-8.140625 c -2.05307,-0.310905 -5.14159,-0.137896 -5.73978,2.217042 -0.73246,2.88351 4.36965,3.849824 5.15475,1.196478 0.32804,-1.108649 0.73802,-2.233318 0.58503,-3.41352 z" />
      <path
         id="path6068"
         style="font-style:normal;font-variant:normal;font-weight:bold;font-stretch:normal;font-size:32px;line-height:100%;font-family:'Liberation Sans';-inkscape-font-specification:'Liberation Sans Bold';letter-spacing:0px;fill:#93093f"
         d="m 292.39357,-14.410622 c 0,-7.729167 0,-15.458333 0,-23.1875 2.29976,-1.364479 5.73626,1.390178 4.45547,3.907504 -0.14374,6.42584 -0.0229,12.853411 -0.0648,19.279996 -1.46354,0 -2.92708,0 -4.39062,0 z" />
    </g>
  </g>
</svg>
